<svg width="28" height="28" viewBox="0 0 28 28" fill="none" xmlns="http://www.w3.org/2000/svg">
<g id="Curved/Profile">
<g id="Profile">
<path id="Stroke 1" fill-rule="evenodd" clip-rule="evenodd" d="M13.8183 25.2722C9.51119 25.2722 5.83301 24.602 5.83301 21.9177C5.83301 19.2335 9.48786 16.7556 13.8183 16.7556C18.1254 16.7556 21.8036 19.2095 21.8036 21.8937C21.8036 24.5769 18.1488 25.2722 13.8183 25.2722Z" stroke="white" stroke-width="1.5" stroke-linecap="round" stroke-linejoin="round"/>
<path id="Stroke 3" fill-rule="evenodd" clip-rule="evenodd" d="M13.8099 13.0359C16.6364 13.0359 18.9273 10.745 18.9273 7.91847C18.9273 5.09196 16.6364 2.79999 13.8099 2.79999C10.9834 2.79999 8.69144 5.09196 8.69144 7.91847C8.68189 10.7354 10.9569 13.0264 13.7739 13.0359C13.7866 13.0359 13.7983 13.0359 13.8099 13.0359Z" stroke="white" stroke-width="1.5" stroke-linecap="round" stroke-linejoin="round"/>
</g>
</g>
</svg>
