<svg width="19" height="21" viewBox="0 0 19 21" fill="none" xmlns="http://www.w3.org/2000/svg">
<path d="M7.84851 13.8554L7.84332 13.8433C7.73892 13.8186 7.63511 13.7915 7.53197 13.762L7.52418 13.7594C6.53762 13.4758 5.62652 12.9763 4.85694 12.297C4.01057 11.5503 3.3597 10.608 2.96108 9.55211C2.56245 8.49623 2.42818 7.35887 2.56996 6.23919C2.71174 5.11951 3.12528 4.05151 3.77451 3.12832C4.42374 2.20512 5.28895 1.45477 6.29471 0.942672C7.30046 0.430576 8.41622 0.172291 9.5447 0.190338C10.6732 0.208384 11.7801 0.502214 12.769 1.04621C13.7578 1.5902 14.5986 2.36784 15.218 3.31132C15.8374 4.2548 16.2165 5.33547 16.3225 6.45912C16.3562 6.8163 16.063 7.10776 15.7041 7.10776C15.346 7.10776 15.0598 6.8163 15.0182 6.45998C14.9039 5.47688 14.532 4.54139 13.9403 3.74807C13.3485 2.95476 12.5577 2.33174 11.648 1.942C10.7382 1.55225 9.7417 1.4096 8.75914 1.52846C7.77658 1.64731 6.84281 2.02347 6.05223 2.6189C5.26164 3.21433 4.64227 4.00793 4.25672 4.91947C3.87117 5.83101 3.7331 6.82818 3.85648 7.81019C3.97986 8.79219 4.36031 9.72422 4.95938 10.5121C5.55844 11.2999 6.35488 11.9156 7.26818 12.297L7.30278 12.3117C7.47575 12.3826 7.65334 12.4451 7.83553 12.4993C7.98861 12.1294 8.26525 11.8241 8.61829 11.6354C8.97132 11.4466 9.37889 11.3862 9.77151 11.4643C10.1641 11.5425 10.5175 11.7544 10.7713 12.0639C11.0252 12.3735 11.1638 12.7615 11.1635 13.1618C11.1639 13.5593 11.0274 13.9449 10.7769 14.2535C10.5263 14.5622 10.1772 14.7751 9.78806 14.8566C9.39895 14.938 8.99369 14.8829 8.64044 14.7005C8.28719 14.5182 8.00753 14.2198 7.84851 13.8554ZM6.99575 14.9555C5.45935 14.4777 4.09706 13.5593 3.07791 12.3143C2.44631 12.3882 1.86388 12.6916 1.44121 13.1667C1.01854 13.6418 0.785078 14.2556 0.785156 14.8915V15.5099C0.785156 18.7255 4.42624 20.9456 9.4338 20.9456C14.4414 20.9456 18.0825 18.6035 18.0825 15.5099V14.8915C18.0825 14.2034 17.8091 13.5435 17.3225 13.0569C16.8359 12.5703 16.176 12.297 15.4879 12.297H12.3354C12.5394 12.9802 12.4957 13.7136 12.2119 14.3677C11.9281 15.0219 11.4224 15.5549 10.7841 15.8727C10.1458 16.1905 9.41571 16.2728 8.72266 16.105C8.0296 15.9372 7.41803 15.5301 6.99575 14.9555ZM13.7581 7.10776C13.7581 5.80009 13.1787 4.6282 12.261 3.83511C11.8006 3.43794 11.2616 3.14232 10.6792 2.96757C10.0968 2.79281 9.48412 2.74285 8.8811 2.82093C8.27808 2.89902 7.69831 3.1034 7.17963 3.42073C6.66095 3.73807 6.21502 4.16122 5.87096 4.66257C5.5269 5.16392 5.29243 5.7322 5.18287 6.3303C5.07332 6.9284 5.09112 7.54289 5.23514 8.13364C5.37915 8.7244 5.64613 9.27814 6.01865 9.75872C6.39117 10.2393 6.86086 10.6359 7.39705 10.9227C7.95428 10.4158 8.6805 10.1348 9.4338 10.1348C10.1874 10.1346 10.914 10.4156 11.4714 10.9227C12.1624 10.5536 12.7401 10.0037 13.1428 9.33175C13.5456 8.65984 13.7583 7.89114 13.7581 7.10776Z" fill="#7F56D9"/>
</svg>
