<svg width="36" height="36" viewBox="0 0 36 36" fill="none" xmlns="http://www.w3.org/2000/svg">
<g clip-path="url(#clip0_8527_5863)">
<path d="M35.0553 27.7718L27.7688 22.9125C26.8441 22.3008 25.6046 22.5021 24.921 23.375L22.7985 26.104C22.5257 26.4637 22.0299 26.568 21.6353 26.3488L21.2316 26.1262C19.8931 25.3967 18.2278 24.4885 14.8725 21.132C11.5172 17.7755 10.6072 16.1089 9.87763 14.7729L9.65625 14.3692C9.43402 13.9746 9.53638 13.4767 9.89619 13.2017L12.6233 11.0799C13.4959 10.3962 13.6975 9.15705 13.0865 8.23209L8.22722 0.945559C7.60104 0.00365221 6.34474 -0.279103 5.37534 0.303631L2.32838 2.13395C1.37101 2.69678 0.668621 3.60832 0.368501 4.67754C-0.728703 8.67534 0.0967125 15.5749 10.2604 25.7398C18.3454 33.8242 24.3644 35.9983 28.5014 35.9983C29.4535 36.0024 30.4018 35.8785 31.321 35.63C32.3904 35.3302 33.3021 34.6278 33.8646 33.6701L35.6967 30.625C36.2803 29.6554 35.9977 28.3983 35.0553 27.7718ZM34.663 30.0094L32.8351 33.0564C32.4312 33.7476 31.7755 34.2558 31.0053 34.4746C27.3147 35.4878 20.8668 34.6486 11.1093 24.891C1.35168 15.1334 0.512479 8.68617 1.52574 4.99496C1.7448 4.22388 2.25365 3.56733 2.9457 3.16282L5.99267 1.33489C6.41328 1.0818 6.95855 1.20448 7.23026 1.61322L9.8699 5.57622L12.0854 8.89911C12.3507 9.30033 12.2635 9.83807 11.885 10.135L9.15724 12.2568C8.32712 12.8916 8.09006 14.0401 8.60115 14.9516L8.81776 15.3452C9.58447 16.7514 10.5377 18.5007 14.0178 21.9802C17.4979 25.4597 19.2466 26.413 20.6522 27.1796L21.0463 27.3968C21.9578 27.9078 23.1064 27.6708 23.7411 26.8407L25.863 24.1129C26.1599 23.7346 26.6975 23.6475 27.0988 23.9125L34.3847 28.7718C34.7937 29.0433 34.9164 29.5889 34.663 30.0094Z" fill="#224091"/>
<path d="M20.4007 6.00251C26.0305 6.00877 30.5929 10.5712 30.5992 16.201C30.5992 16.5324 30.8677 16.8009 31.1991 16.8009C31.5304 16.8009 31.799 16.5324 31.799 16.201C31.792 9.90877 26.6929 4.80962 20.4007 4.80273C20.0693 4.80273 19.8008 5.07129 19.8008 5.40262C19.8008 5.73396 20.0693 6.00251 20.4007 6.00251Z" fill="#224091"/>
<path d="M20.4007 9.60212C24.0434 9.60641 26.9954 12.5584 26.9997 16.2012C26.9997 16.5325 27.2683 16.8011 27.5996 16.8011C27.9309 16.8011 28.1995 16.5325 28.1995 16.2012C28.1945 11.896 24.7058 8.40726 20.4007 8.40234C20.0693 8.40234 19.8008 8.6709 19.8008 9.00223C19.8008 9.33357 20.0693 9.60212 20.4007 9.60212Z" fill="#224091"/>
<path d="M20.4007 13.2017C22.0564 13.2037 23.3982 14.5455 23.4002 16.2013C23.4002 16.5326 23.6689 16.8012 24.0001 16.8012C24.3314 16.8012 24.6 16.5326 24.6 16.2013C24.5974 13.8832 22.7188 12.0046 20.4007 12.002C20.0693 12.002 19.8008 12.2705 19.8008 12.6018C19.8008 12.9332 20.0693 13.2017 20.4007 13.2017Z" fill="#224091"/>
</g>
<defs>
<clipPath id="clip0_8527_5863">
<rect width="36" height="36" fill="white"/>
</clipPath>
</defs>
</svg>
