<svg width="36" height="36" viewBox="0 0 36 36" fill="none" xmlns="http://www.w3.org/2000/svg">
<g clip-path="url(#clip0_8527_5876)">
<path d="M27.7987 23.5565C27.5113 23.2691 27.1273 23.1101 26.7187 23.1101H26.7175C26.3083 23.1101 25.9255 23.2697 25.6381 23.5577L23.5447 25.6571C23.2249 25.8023 20.6317 26.6993 14.9647 21.0335C9.32405 15.3929 10.2085 12.7625 10.3435 12.4511L12.4405 10.3601C12.7285 10.0727 12.8875 9.68989 12.8881 9.28069C12.8881 8.87149 12.7297 8.48809 12.4417 8.19889L7.18985 2.95429C6.59825 2.36269 5.63225 2.36089 5.03825 2.95309L2.87825 5.10709C0.358254 7.62769 -4.14055 14.8559 8.50085 27.4973C15.0619 34.0583 20.1637 36.0023 23.9077 36.0023C27.3769 36.0023 29.6791 34.3319 30.8923 33.1187L33.0451 30.9599C33.6367 30.3665 33.6361 29.4005 33.0451 28.8071L27.7999 23.5559L27.7987 23.5565ZM5.88545 3.80269C5.94785 3.74029 6.03065 3.70909 6.11345 3.70909C6.19625 3.70909 6.27845 3.74029 6.34145 3.80329L11.5933 9.04789C11.6761 9.13069 11.6881 9.22849 11.6881 9.27949C11.6881 9.33049 11.6755 9.42829 11.5933 9.51049L9.85865 11.2403L4.15085 5.53249L5.88545 3.80269ZM22.7485 34.7315C18.7621 34.2731 14.2537 31.5539 9.34865 26.6489C4.44365 21.7439 1.72505 17.2355 1.26665 13.2491C0.895854 10.0259 2.09105 7.79449 3.31745 6.39589L9.14645 12.2249C8.78825 13.3475 8.64425 16.4099 14.1169 21.8819C19.5895 27.3539 22.6513 27.2105 23.7739 26.8523L29.6029 32.6813C28.2037 33.9077 25.9717 35.1035 22.7497 34.7321L22.7485 34.7315ZM32.1943 30.1133L30.4651 31.8473L24.7573 26.1395L26.4871 24.4049C26.5693 24.3221 26.6671 24.3101 26.7181 24.3101C26.7691 24.3101 26.8669 24.3227 26.9491 24.4049L32.1937 29.6555C32.3197 29.7821 32.3203 29.9873 32.1943 30.1133Z" fill="#224091"/>
<path d="M34.2016 0H17.4016C16.4092 0 15.6016 0.8076 15.6016 1.8V15C15.6016 15.9924 16.4092 16.8 17.4016 16.8H27.2212L30.5584 20.6154C30.778 20.8656 31.0822 21.0012 31.4008 21.0012C31.5136 21.0012 31.6294 20.9844 31.7434 20.949C32.1748 20.8152 32.476 20.4552 32.5288 20.0124L32.9314 16.8H34.2016C35.194 16.8 36.0016 15.9924 36.0016 15V1.8C36.0016 0.8076 35.194 0 34.2016 0ZM34.8016 15C34.8016 15.3312 34.5328 15.6 34.2016 15.6H32.4016C32.0992 15.6 31.8436 15.825 31.8064 16.1256L31.3576 19.707L27.9454 15.8052C27.8314 15.675 27.6664 15.6 27.4936 15.6H17.4016C17.0704 15.6 16.8016 15.3312 16.8016 15V1.8C16.8016 1.4688 17.0704 1.2 17.4016 1.2H34.2016C34.5328 1.2 34.8016 1.4688 34.8016 1.8V15Z" fill="#224091"/>
<path d="M28.9184 4.43991L23.933 11.0861L22.622 9.77511C22.3874 9.54051 22.0082 9.54051 21.7736 9.77511C21.539 10.0097 21.539 10.3889 21.7736 10.6235L23.5736 12.4235C23.6864 12.5363 23.8388 12.5993 23.9978 12.5993C24.0116 12.5993 24.026 12.5993 24.0404 12.5975C24.2138 12.5849 24.3734 12.4985 24.4778 12.3593L29.8778 5.15931C30.077 4.89471 30.023 4.51851 29.7578 4.31991C29.4938 4.12191 29.117 4.17471 28.9184 4.43991Z" fill="#224091"/>
</g>
<defs>
<clipPath id="clip0_8527_5876">
<rect width="36" height="36" fill="white"/>
</clipPath>
</defs>
</svg>
