<svg width="25" height="25" viewBox="0 0 25 25" fill="none" xmlns="http://www.w3.org/2000/svg">
<g id="shopping-cart">
<path id="Vector" d="M8.83789 22.5C9.39018 22.5 9.83789 22.0523 9.83789 21.5C9.83789 20.9477 9.39018 20.5 8.83789 20.5C8.28561 20.5 7.83789 20.9477 7.83789 21.5C7.83789 22.0523 8.28561 22.5 8.83789 22.5Z" stroke="#7F56D9" stroke-width="2" stroke-linecap="round" stroke-linejoin="round"/>
<path id="Vector_2" d="M19.8379 22.5C20.3902 22.5 20.8379 22.0523 20.8379 21.5C20.8379 20.9477 20.3902 20.5 19.8379 20.5C19.2856 20.5 18.8379 20.9477 18.8379 21.5C18.8379 22.0523 19.2856 22.5 19.8379 22.5Z" stroke="#7F56D9" stroke-width="2" stroke-linecap="round" stroke-linejoin="round"/>
<path id="Vector_3" d="M2.88788 2.55H4.88788L7.54788 14.97C7.64546 15.4249 7.89855 15.8315 8.26359 16.1199C8.62863 16.4082 9.08278 16.5604 9.54788 16.55H19.3279C19.7831 16.5493 20.2244 16.3933 20.5789 16.1078C20.9334 15.8224 21.18 15.4245 21.2779 14.98L22.9279 7.55H5.95788" stroke="#7F56D9" stroke-width="2" stroke-linecap="round" stroke-linejoin="round"/>
</g>
</svg>
