<svg width="58" height="58" viewBox="0 0 58 58" fill="none" xmlns="http://www.w3.org/2000/svg">
<g clip-path="url(#clip0_3324_261)">
<path d="M56.1877 6.52498C56.7314 6.52498 57.0939 6.16248 57.0939 5.61873V3.53436C57.0939 1.99373 56.0064 0.90623 54.4658 0.90623H52.5627C51.1127 0.90623 49.9346 2.08436 49.9346 3.53436V4.53123C49.1189 4.53123 48.3939 4.34998 47.6689 4.16873L33.1689 0.996855C31.6283 0.72498 29.9971 0.90623 28.5471 1.54061L20.3908 5.34686C19.9377 5.52811 19.7564 6.07186 19.9377 6.52498C20.2096 7.24998 21.0252 6.97811 21.1158 6.97811L29.2721 3.17186C30.4502 2.71873 31.6283 2.53748 32.8064 2.80936L47.3064 5.98123C48.0314 6.16248 48.9377 6.25311 49.9346 6.34373V19.0312C48.4846 18.9406 45.2221 20.2094 45.2221 20.2094C44.1346 20.5719 42.8658 20.7531 41.5064 20.7531H33.6221C32.6252 20.7531 31.8096 19.9375 31.8096 18.9406C31.8096 17.9437 32.6252 17.1281 33.6221 17.1281H37.2471C38.5158 17.1281 39.6033 16.3125 39.9658 15.1344C40.3283 13.9562 39.8752 12.6875 38.8783 12.0531L33.2596 8.24686C33.0783 8.24686 32.8971 8.15623 32.7158 8.15623H7.34082C5.8002 8.15623 4.62207 9.33436 4.62207 10.875V23.5625C4.62207 24.1062 4.98457 24.4687 5.52832 24.4687C6.07207 24.4687 6.43457 24.1062 6.43457 23.5625V10.875C6.43457 10.3312 6.79707 9.96873 7.34082 9.96873H32.4439L37.8814 13.5937C38.4252 13.9562 38.3346 14.5 38.2439 14.6812C38.1533 14.8625 37.9721 15.4062 37.2471 15.4062H33.6221C31.6283 15.4062 29.9971 17.0375 29.9971 19.0312C29.9971 21.025 31.6283 22.6562 33.6221 22.6562H41.5064C43.0471 22.6562 44.4971 22.3844 45.7658 21.9312C45.7658 21.9312 48.8471 20.6625 49.9346 20.8437V21.8406C49.9346 23.2906 51.1127 24.4687 52.5627 24.4687H54.4658C55.9158 24.4687 57.0939 23.2906 57.0939 21.8406V9.06248C57.0939 8.51873 56.7314 8.15623 56.1877 8.15623C55.6439 8.15623 55.2814 8.51873 55.2814 9.06248V21.8406C55.2814 22.2031 55.0096 22.6562 54.4658 22.6562H52.5627C52.2002 22.6562 51.7471 22.3844 51.7471 21.8406V3.53436C51.7471 3.17186 52.0189 2.71873 52.5627 2.71873H54.4658C54.9189 2.71873 55.2814 3.08123 55.2814 3.53436V5.61873C55.2814 6.07186 55.6439 6.52498 56.1877 6.52498ZM41.7783 28.0937C42.3221 28.0937 42.6846 27.7312 42.6846 27.1875C42.6846 26.6437 43.0471 26.2812 43.5908 26.2812C44.1346 26.2812 44.4971 25.9187 44.4971 25.375C44.4971 24.8312 44.1346 24.4687 43.5908 24.4687C42.4127 24.4687 41.4158 25.1937 41.0533 26.2812H36.3408C35.7971 26.2812 35.4346 26.6437 35.4346 27.1875C35.4346 27.7312 35.7971 28.0937 36.3408 28.0937H41.7783Z" fill="#224091"/>
<path d="M34.4377 12.6875C34.4377 12.1437 34.0752 11.7812 33.5314 11.7812H10.9658C10.4221 11.7812 10.0596 12.1437 10.0596 12.6875C10.0596 13.2313 9.69707 13.5938 9.15332 13.5938C8.60957 13.5938 8.24707 13.9562 8.24707 14.5V25.375C8.24707 25.9187 8.60957 26.2812 9.15332 26.2812C9.69707 26.2812 10.0596 26.6438 10.0596 27.1875C10.0596 27.7312 10.4221 28.0938 10.9658 28.0938H32.8064C33.3502 28.0938 33.7127 27.7312 33.7127 27.1875C33.7127 26.6438 33.3502 26.2812 32.8064 26.2812H11.6908C11.4189 25.4656 10.7846 24.9219 10.0596 24.65V15.225C10.8752 14.9531 11.4189 14.3187 11.6908 13.5938H33.5314C33.9846 13.5938 34.4377 13.2313 34.4377 12.6875ZM15.3158 39.875C13.7752 39.3312 12.2346 39.2406 10.6939 39.6937C10.2408 39.7844 9.87832 40.3281 10.0596 40.7812C10.1502 41.2344 10.6939 41.5969 11.1471 41.4156C12.3252 41.1438 13.4127 41.1438 14.6814 41.5969L16.0408 42.05C16.1314 42.05 16.9471 42.2312 17.2189 41.5062C17.4002 41.0531 17.1283 40.5094 16.6752 40.3281L15.3158 39.875Z" fill="#224091"/>
<path d="M50.1154 37.8812C49.2092 37.1562 48.0311 36.975 46.9436 37.2469L33.5311 42.5938C33.3498 40.6906 31.8998 39.3313 29.9061 39.3313H25.5561C24.1967 39.3313 22.9279 39.15 21.8404 38.6969L15.2248 36.5219C13.5029 35.8875 11.6904 35.8875 9.96856 36.5219L8.06543 37.1562V36.25C8.06543 34.7094 6.8873 33.5312 5.34668 33.5312H3.53418C1.99355 33.5312 0.81543 34.7094 0.81543 36.25V38.0625C0.81543 38.6062 1.17793 38.9688 1.72168 38.9688C2.26543 38.9688 2.62793 38.6062 2.62793 38.0625V36.25C2.62793 35.7062 2.99043 35.3438 3.53418 35.3438H5.34668C5.89043 35.3438 6.25293 35.7062 6.25293 36.25V54.375C6.25293 54.9188 5.89043 55.2812 5.34668 55.2812H3.53418C2.99043 55.2812 2.62793 54.9188 2.62793 54.375V41.325C2.62793 40.7812 2.26543 40.4187 1.72168 40.4187C1.17793 40.4187 0.81543 40.7812 0.81543 41.325V54.375C0.81543 55.9156 1.99355 57.0938 3.53418 57.0938H5.34668C6.8873 57.0938 8.06543 55.9156 8.06543 54.375V53.1969C8.06543 53.1969 12.0529 51.3844 16.4936 52.7438L23.2904 54.7375C24.1967 54.9188 27.6404 55.4625 30.7217 54.1937L36.4311 51.1125C36.8842 50.8406 37.0654 50.2969 36.7936 49.8438C36.5217 49.3906 35.9779 49.2094 35.5248 49.4812L30.2686 52.5625C28.2748 53.3781 26.0998 53.5594 24.0154 53.0156L17.2186 51.0219C12.7779 49.6625 8.24668 51.2937 8.24668 51.2937V39.15L10.6936 38.2438C12.0529 37.7906 13.3217 37.7906 14.7717 38.2438L21.3873 40.4187C22.6561 40.8719 24.1061 41.1438 25.6467 41.1438H29.9967C30.9936 41.1438 31.8092 41.9594 31.8092 42.9563C31.8092 43.9531 30.9936 44.7688 29.9967 44.7688H20.0279C19.4842 44.7688 19.1217 45.1313 19.1217 45.675C19.1217 46.2188 19.4842 46.5813 20.0279 46.5813H29.9967C31.3561 46.5813 32.5342 45.8563 33.1686 44.7688L47.4873 39.0594C48.8467 38.6062 49.7529 40.2375 49.7529 40.8719C49.7529 41.5969 49.2998 42.3219 48.5748 42.5938L44.4061 44.8594C43.9529 45.1313 43.7717 45.675 44.0436 46.1281C44.4061 46.7625 45.1311 46.5812 45.3123 46.4906L49.4811 44.225C50.7498 43.5906 51.6561 42.3219 51.6561 40.7812C51.5654 39.6937 51.0217 38.6062 50.1154 37.8812Z" fill="#224091"/>
<path d="M41.2346 46.5813L39.5127 47.4875C39.0596 47.7594 38.8783 48.3031 39.1502 48.7562C39.5127 49.3906 40.2377 49.2094 40.4189 49.1188L42.1408 48.2125C42.5939 47.9406 42.7752 47.3969 42.5033 46.9437C42.2314 46.4906 41.6877 46.3094 41.2346 46.5813ZM13.6846 17.2188H14.5908C15.1346 17.2188 15.4971 16.8563 15.4971 16.3125C15.4971 15.7687 15.1346 15.4062 14.5908 15.4062H13.4127C12.5064 15.4062 11.8721 16.0406 11.8721 16.9469V18.125C11.8721 18.6688 12.2346 19.0312 12.7783 19.0312C13.3221 19.0312 13.6846 18.6688 13.6846 18.125V17.2188ZM12.7783 20.8438C12.2346 20.8438 11.8721 21.2063 11.8721 21.75V23.5625C11.8721 24.1062 12.2346 24.4688 12.7783 24.4688C13.3221 24.4688 13.6846 24.1062 13.6846 23.5625V21.75C13.6846 21.2063 13.3221 20.8438 12.7783 20.8438ZM7.34082 31.7188H45.4033C46.9439 31.7188 48.1221 30.5406 48.1221 29V23.5625C48.1221 23.0188 47.7596 22.6562 47.2158 22.6562C46.6721 22.6562 46.3096 23.0188 46.3096 23.5625V29C46.3096 29.5437 45.9471 29.9062 45.4033 29.9062H7.34082C6.79707 29.9062 6.43457 29.5437 6.43457 29V27.1875C6.43457 26.6438 6.07207 26.2812 5.52832 26.2812C4.98457 26.2812 4.62207 26.6438 4.62207 27.1875V29C4.62207 30.5406 5.8002 31.7188 7.34082 31.7188Z" fill="#224091"/>
</g>
<defs>
<clipPath id="clip0_3324_261">
<rect width="58" height="58" fill="white"/>
</clipPath>
</defs>
</svg>
