<svg width="32" height="32" viewBox="0 0 32 32" fill="none" xmlns="http://www.w3.org/2000/svg">
<mask id="mask0_5731_612" style="mask-type:alpha" maskUnits="userSpaceOnUse" x="0" y="0" width="32" height="32">
<rect width="32" height="32" fill="#D9D9D9"/>
</mask>
<g mask="url(#mask0_5731_612)">
<path d="M16.001 17.4061L9.23683 24.1702C9.05223 24.3548 8.82018 24.4492 8.54069 24.4535C8.26122 24.4578 8.02491 24.3633 7.83176 24.1702C7.63858 23.977 7.54199 23.7428 7.54199 23.4676C7.54199 23.1924 7.63858 22.9582 7.83176 22.7651L14.5959 16.001L7.83176 9.23682C7.64714 9.05222 7.55269 8.82018 7.54843 8.54069C7.54414 8.26123 7.63858 8.02491 7.83176 7.83176C8.02491 7.63858 8.25909 7.54199 8.53429 7.54199C8.80949 7.54199 9.04367 7.63858 9.23683 7.83176L16.001 14.5959L22.7651 7.83176C22.9497 7.64714 23.1817 7.55269 23.4612 7.54843C23.7407 7.54414 23.977 7.63858 24.1702 7.83176C24.3633 8.02491 24.4599 8.25909 24.4599 8.53429C24.4599 8.80949 24.3633 9.04367 24.1702 9.23682L17.4061 16.001L24.1702 22.7651C24.3548 22.9497 24.4492 23.1817 24.4535 23.4612C24.4578 23.7407 24.3633 23.977 24.1702 24.1702C23.977 24.3633 23.7428 24.4599 23.4676 24.4599C23.1924 24.4599 22.9582 24.3633 22.7651 24.1702L16.001 17.4061Z" fill="#1C1B1F"/>
</g>
</svg>
