<svg width="16" height="16" viewBox="0 0 16 16" fill="none" xmlns="http://www.w3.org/2000/svg">
<path d="M15.8534 15.1404L8.70685 7.99387L15.8534 0.847328C16.0406 0.653602 16.0406 0.346412 15.8534 0.152625C15.6616 -0.0459829 15.345 -0.0514761 15.1464 0.140357L7.99988 7.2869L0.853394 0.140418C0.659668 -0.0467153 0.352478 -0.0467153 0.158691 0.140418C-0.0399171 0.332252 -0.0454101 0.64878 0.146423 0.847389L7.29291 7.99387L0.146423 15.1404C0.0526734 15.2341 1.25035e-08 15.3612 1.25035e-08 15.4938C-6.10875e-05 15.7699 0.223816 15.9938 0.499939 15.9939C0.632568 15.994 0.759766 15.9413 0.853394 15.8473L7.99988 8.70084L15.1464 15.8474C15.2401 15.9413 15.3673 15.9941 15.4999 15.9939C15.6324 15.9938 15.7595 15.9412 15.8533 15.8475C16.0486 15.6523 16.0486 15.3357 15.8534 15.1404Z" fill="black"/>
</svg>
