<svg width="28" height="28" viewBox="0 0 28 28" fill="none" xmlns="http://www.w3.org/2000/svg">
<g id="Curved/Paper">
<g id="Curved/Ticket Star">
<g id="Ticket Star">
<path id="Stroke 1" fill-rule="evenodd" clip-rule="evenodd" d="M25.0135 16.3263C21.909 16.3263 21.909 11.5261 25.0135 11.5261C25.0135 5.96445 25.0135 3.9794 14.0526 3.9794C3.0918 3.9794 3.0918 5.96445 3.0918 11.5261C6.1963 11.5261 6.1963 16.3263 3.0918 16.3263C3.0918 21.8891 3.0918 23.8741 14.0526 23.8741C25.0135 23.8741 25.0135 21.8891 25.0135 16.3263Z" stroke="white" stroke-width="1.5" stroke-linecap="round" stroke-linejoin="round"/>
<path id="Stroke 3" fill-rule="evenodd" clip-rule="evenodd" d="M14.0526 10.6996C13.2557 10.6996 13.1799 11.9707 12.7062 12.4205C12.2314 12.8692 10.7579 12.3564 10.5526 13.1533C10.3484 13.9513 11.6749 14.2221 11.8394 14.9062C12.0027 15.5904 11.1931 16.552 11.8849 17.0317C12.5779 17.5091 13.3234 16.4271 14.0526 16.4271C14.7817 16.4271 15.5272 17.5091 16.2202 17.0317C16.9132 16.552 16.1024 15.5904 16.2657 14.9062C16.4302 14.2221 17.7567 13.9513 17.5526 13.1533C17.3472 12.3564 15.8737 12.8692 15.3989 12.4205C14.9252 11.9707 14.8494 10.6996 14.0526 10.6996Z" stroke="white" stroke-width="1.5" stroke-linecap="round" stroke-linejoin="round"/>
</g>
</g>
</g>
</svg>
