<svg width="25" height="28" viewBox="0 0 25 28" fill="none" xmlns="http://www.w3.org/2000/svg">
<path d="M11.0422 14.0547H4.74219" stroke="white" stroke-width="1.5" stroke-linecap="round" stroke-linejoin="round"/>
<path d="M8.65752 9.3763H4.74219" stroke="white" stroke-width="1.5" stroke-linecap="round" stroke-linejoin="round"/>
<path fill-rule="evenodd" clip-rule="evenodd" d="M20.2617 7.475L13.6467 1.175C12.795 1.05833 11.8383 1 10.7883 1C3.45 1 1 3.70667 1 11.7917C1 19.8883 3.45 22.5833 10.7883 22.5833C10.7883 15.292 14.7422 11.7917 20.5883 11.7917C20.5883 10.135 20.4833 8.7 20.2617 7.475Z" stroke="white" stroke-width="1.5" stroke-linecap="round" stroke-linejoin="round"/>
<path d="M13 1.0957V4.2002C13 6.36787 14.757 8.1237 16.9247 8.1237H20.3675" stroke="white" stroke-width="1.5" stroke-linecap="round" stroke-linejoin="round"/>
<path d="M18.7422 27.793L12.7422 21.793L14.1422 20.393L17.7422 23.993V14.793H19.7422V23.993L23.3422 20.393L24.7422 21.793L18.7422 27.793Z" fill="white"/>
</svg>
