<svg width="31" height="19" viewBox="0 0 31 19" fill="none" xmlns="http://www.w3.org/2000/svg">
<g id="diamond" clip-path="url(#clip0_82_67)">
<path id="Vector" d="M3.4875 8.22372C3.1981 8.39159 2.96852 8.59092 2.81188 8.81034C2.65524 9.02976 2.57462 9.26495 2.57462 9.50247C2.57462 9.73999 2.65524 9.97518 2.81188 10.1946C2.96852 10.414 3.1981 10.6134 3.4875 10.7812L13.2912 16.4737C13.5803 16.6418 13.9237 16.7751 14.3015 16.866C14.6794 16.957 15.0845 17.0038 15.4935 17.0038C15.9026 17.0038 16.3077 16.957 16.6855 16.866C17.0634 16.7751 17.4067 16.6418 17.6958 16.4737L27.4996 10.7812C27.789 10.6134 28.0186 10.414 28.1752 10.1946C28.3318 9.97518 28.4125 9.73999 28.4125 9.50247C28.4125 9.26495 28.3318 9.02976 28.1752 8.81034C28.0186 8.59092 27.789 8.39159 27.4996 8.22372L17.6958 2.53122C17.4067 2.36318 17.0634 2.22988 16.6855 2.13892C16.3077 2.04797 15.9026 2.00116 15.4935 2.00116C15.0845 2.00116 14.6794 2.04797 14.3015 2.13892C13.9237 2.22988 13.5803 2.36318 13.2912 2.53122L3.4875 8.22372Z" fill="white" stroke="#7F56D9" stroke-width="2" stroke-linecap="round" stroke-linejoin="round"/>
</g>
<defs>
<clipPath id="clip0_82_67">
<rect width="31" height="18" fill="white" transform="translate(0 0.498718)"/>
</clipPath>
</defs>
</svg>
