<svg xmlns="http://www.w3.org/2000/svg" width="41" height="48" viewBox="0 0 41 48" fill="none">
<path fill-rule="evenodd" clip-rule="evenodd" d="M38.0492 2.62666H38.3348C38.5943 2.64873 38.8548 2.59715 39.0869 2.47773C39.1619 2.4178 39.2209 2.33984 39.2584 2.25096C39.2959 2.16208 39.3109 2.0651 39.3018 1.9689C39.3106 1.87514 39.2961 1.78065 39.2596 1.69398C39.2232 1.6073 39.1659 1.53117 39.0931 1.47249C38.8651 1.35409 38.6084 1.30352 38.3531 1.32666H38.0553V2.62666H38.0492ZM38.0492 5.67032H36.6493V0.132153H38.2119C38.6436 0.118278 39.0757 0.148425 39.5014 0.222131C39.7319 0.275641 39.9471 0.381774 40.1307 0.532393C40.3342 0.701827 40.4934 0.919168 40.5943 1.16532C40.704 1.43376 40.7583 1.72197 40.754 2.01234C40.76 2.31061 40.7067 2.60707 40.5974 2.88418C40.498 3.12688 40.3383 3.33955 40.1338 3.50159C39.9717 3.62622 39.7855 3.71501 39.5873 3.76221C39.2556 3.8265 38.918 3.85356 38.5804 3.84288H38.0553V5.67032H38.0492ZM30.638 0.132153H32.127V2.82523C32.1219 3.10999 32.1321 3.39481 32.1577 3.67845C32.1719 3.82619 32.206 3.97129 32.259 4.10971C32.3166 4.25077 32.4222 4.36634 32.5568 4.43549C32.7184 4.51429 32.8963 4.5526 33.0756 4.54718C33.255 4.5526 33.4329 4.51429 33.5945 4.43549C33.7304 4.36725 33.8374 4.25151 33.8954 4.10971C33.9498 3.97173 33.9839 3.82643 33.9967 3.67845C34.0151 3.5047 34.0274 3.22236 34.0274 2.82523V0.132153H35.5133V3.06102C35.5268 3.51147 35.4908 3.96205 35.4059 4.40446C35.3416 4.67561 35.2166 4.92824 35.0405 5.14288C34.8335 5.37859 34.5672 5.55333 34.2699 5.6486C33.8844 5.76877 33.4821 5.82535 33.0787 5.81615C32.6753 5.82583 32.273 5.76924 31.8875 5.6486C31.5892 5.55375 31.3218 5.37899 31.1139 5.14288C30.9389 4.92748 30.8141 4.67513 30.7486 4.40446C30.6608 3.96242 30.6237 3.51164 30.638 3.06102V0.132153ZM26.8065 4.54097C27.001 4.54507 27.194 4.50577 27.3718 4.42586C27.5496 4.34595 27.7078 4.22741 27.835 4.07868C28.1107 3.75529 28.2554 3.33867 28.2402 2.9121C28.2526 2.48582 28.1058 2.07045 27.8289 1.74862C27.7029 1.59979 27.5458 1.4809 27.3691 1.40045C27.1924 1.32001 27.0003 1.27998 26.8065 1.28323C26.612 1.27913 26.419 1.31843 26.2412 1.39834C26.0634 1.47824 25.9053 1.59678 25.778 1.74551C25.5029 2.06798 25.3582 2.48345 25.3728 2.90899C25.356 3.33568 25.4984 3.75317 25.7719 4.07868C25.8993 4.22876 26.0585 4.34815 26.2375 4.42814C26.4165 4.50812 26.6109 4.54667 26.8065 4.54097ZM29.7323 2.9121C29.7348 3.29645 29.6607 3.67737 29.5144 4.03214C29.3678 4.38326 29.1527 4.70089 28.8819 4.96603C28.6055 5.23608 28.2803 5.44991 27.924 5.59586C27.5681 5.74177 27.1875 5.81658 26.8034 5.81615C26.4183 5.81718 26.0367 5.74235 25.6798 5.59586C25.3265 5.45119 25.0051 5.23711 24.7342 4.96603C24.4589 4.70038 24.2404 4.3804 24.0925 4.02594C23.9471 3.67199 23.873 3.29226 23.8746 2.90899C23.8724 2.52567 23.9465 2.14583 24.0925 1.79205C24.242 1.43937 24.4603 1.12071 24.7342 0.855063C25.005 0.58395 25.3265 0.36987 25.6798 0.225232C26.0367 0.0790676 26.4183 0.0042601 26.8034 0.00494924C27.1885 0.00451853 27.5701 0.0793165 27.9271 0.225232C28.2832 0.369758 28.6077 0.583777 28.8819 0.855063C29.1524 1.1205 29.3675 1.43806 29.5144 1.78895C29.6613 2.14462 29.7355 2.52668 29.7323 2.9121ZM20.5926 2.75076H20.8689C21.1158 2.77004 21.3625 2.71151 21.5751 2.58322C21.651 2.52097 21.7107 2.44099 21.7492 2.35019C21.7878 2.25938 21.8038 2.16047 21.7961 2.06198C21.8073 1.95372 21.7943 1.84431 21.7582 1.74177C21.722 1.63923 21.6637 1.54616 21.5873 1.46938C21.3816 1.33233 21.1359 1.26998 20.8904 1.29253H20.5926V2.75076ZM19.1896 5.67032V0.132153H20.7523C21.1797 0.118136 21.6074 0.146193 22.0294 0.215925C22.2548 0.265544 22.4672 0.362824 22.6527 0.501365C22.8494 0.652416 23.0056 0.850801 23.107 1.07845C23.2157 1.32209 23.2702 1.58687 23.2667 1.85411C23.2836 2.22855 23.1731 2.59755 22.9535 2.89969C22.7228 3.18237 22.3992 3.37177 22.0417 3.43334L23.5338 5.66722H21.8453L20.5865 3.49849V5.66722H19.1896V5.67032ZM15.3335 3.6288V2.46842H18.2686C18.2716 2.50565 18.2747 2.54909 18.2747 2.59253V2.7942C18.2747 3.7498 18.026 4.48926 17.5287 5.01257C17.2515 5.28436 16.9214 5.4948 16.5593 5.63048C16.1972 5.76617 15.8111 5.82412 15.4256 5.80063C15.0217 5.80712 14.6201 5.73877 14.2406 5.59897C13.8911 5.46313 13.5748 5.25251 13.3134 4.98154C13.0505 4.71317 12.8447 4.39324 12.7086 4.04145C12.565 3.67947 12.4919 3.2928 12.4937 2.90279C12.4897 2.51316 12.5607 2.12647 12.7025 1.76413C12.8448 1.41135 13.0581 1.09229 13.3288 0.827141C13.5993 0.559341 13.921 0.350284 14.2744 0.212824C14.6423 0.0730974 15.0325 0.00264454 15.4256 0.00494924C15.9192 -0.00438313 16.4078 0.106279 16.8502 0.327619C17.2728 0.551417 17.632 0.880287 17.894 1.28323L16.5984 1.90996C16.4625 1.71281 16.2841 1.54943 16.0765 1.43215C15.8771 1.32542 15.6543 1.27102 15.4287 1.27392C15.2303 1.26444 15.0324 1.30023 14.8495 1.37865C14.6667 1.45707 14.5037 1.5761 14.3726 1.7269C14.0986 2.07687 13.961 2.51618 13.9858 2.96174C13.9601 3.41028 14.0977 3.85283 14.3726 4.20589C14.5031 4.35768 14.6659 4.47759 14.8488 4.55659C15.0317 4.63559 15.23 4.67162 15.4287 4.66197C15.7669 4.67449 16.0999 4.57538 16.3774 4.37964C16.4993 4.29304 16.6017 4.18138 16.6779 4.05199C16.7541 3.92259 16.8023 3.77837 16.8195 3.6288H15.3335ZM6.11708 3.88011C6.30387 4.10528 6.52584 4.29811 6.77412 4.45099C6.96821 4.57168 7.19101 4.63707 7.41887 4.64025C7.59635 4.64697 7.77038 4.5898 7.91004 4.47892C7.97163 4.42991 8.02115 4.36714 8.0547 4.29555C8.08826 4.22395 8.10499 4.14548 8.1035 4.06627C8.10828 3.98748 8.09586 3.9086 8.06722 3.83516C8.03858 3.76172 7.99439 3.69552 7.9377 3.64121C7.70813 3.49012 7.4516 3.38579 7.18247 3.33406C6.76022 3.24684 6.36763 3.0501 6.0434 2.76318C5.81042 2.49865 5.69021 2.15189 5.70881 1.79826C5.70026 1.55654 5.7429 1.31577 5.83398 1.09209C5.92505 0.868414 6.06244 0.667001 6.23685 0.501365C6.60798 0.159222 7.0981 -0.0203912 7.59996 0.00184359C7.89103 -0.000467462 8.18081 0.0413692 8.4596 0.125951C8.73317 0.211125 8.99283 0.336576 9.2302 0.498264L8.76354 1.58418C8.60788 1.44653 8.43177 1.3345 8.24164 1.2522C8.07459 1.18026 7.89516 1.1423 7.71359 1.1405C7.55697 1.13328 7.40239 1.17914 7.27451 1.27081C7.2214 1.30845 7.17825 1.35869 7.14881 1.4171C7.11938 1.47552 7.1046 1.54035 7.10572 1.6059C7.10302 1.669 7.11491 1.73188 7.14049 1.78951C7.16608 1.84715 7.20464 1.89795 7.25307 1.93788C7.42647 2.05384 7.62031 2.13495 7.82407 2.17678L7.8916 2.1954C8.32953 2.2767 8.74147 2.46407 9.09206 2.74145C9.22521 2.8812 9.3268 3.04844 9.38985 3.23167C9.45971 3.43511 9.49402 3.64928 9.49119 3.8646C9.50196 4.12847 9.45651 4.39161 9.358 4.63622C9.25948 4.88083 9.11017 5.10122 8.92012 5.2825C8.4995 5.65439 7.9525 5.84682 7.39429 5.81925C7.03703 5.8239 6.6823 5.75748 6.35041 5.62378C6.01349 5.47606 5.70647 5.26675 5.44474 5.00637L6.11708 3.88011ZM1.4782 4.42928H1.72997C2.18854 4.46929 2.64581 4.33914 3.01632 4.06317C3.16237 3.91051 3.27416 3.72785 3.3441 3.52761C3.41403 3.32738 3.44047 3.11427 3.4216 2.90279C3.44021 2.69086 3.41363 2.47735 3.34372 2.27666C3.27382 2.07596 3.16219 1.89273 3.01632 1.73931C2.64691 1.46085 2.18907 1.32943 1.72997 1.3701H1.4782V4.42928ZM0.00146484 5.67032V0.132153H1.14353C1.74875 0.113225 2.3544 0.153749 2.95186 0.253155C3.28468 0.326039 3.60051 0.462977 3.88211 0.656496C4.22288 0.89369 4.49512 1.21812 4.67107 1.59659C4.85735 2.00586 4.94974 2.45238 4.94128 2.90279C4.9497 3.3542 4.85732 3.80172 4.67107 4.2121C4.49414 4.58993 4.2221 4.91413 3.88211 5.15219C3.60832 5.3429 3.30081 5.47877 2.97637 5.55242C2.45567 5.64561 1.92698 5.68511 1.39837 5.67032H0.00146484Z" fill="white"/>
<path fill-rule="evenodd" clip-rule="evenodd" d="M22.2049 48.0003C28.6522 45.7683 34.8937 35.9116 25.6619 27.9587C17.6856 21.0882 17.7071 15.1925 21.7259 11.7097C24.8636 8.99029 30.8135 9.29074 35.8056 14.331C39.5972 18.1633 40.7884 24.1877 40.7485 27.6491C40.6257 37.3709 32.2258 46.869 22.2049 48.0003Z" fill="white"/>
<path fill-rule="evenodd" clip-rule="evenodd" d="M0 9.97998H17.3647C11.6051 11.7367 7.39291 16.6329 7.39291 22.8627C7.39291 34.1175 18.8567 35.3622 18.8567 42.2972C18.8567 44.1122 18.2336 45.5163 16.9994 46.5066C15.7652 47.4969 14.0152 47.9966 11.7525 47.9966H0V9.97998Z" fill="white"/>
</svg>