<svg width="26" height="26" viewBox="0 0 26 26" fill="none" xmlns="http://www.w3.org/2000/svg">
<path d="M15.307 16.1667H9.45703" stroke="white" stroke-width="1.5" stroke-linecap="round" stroke-linejoin="round"/>
<path d="M13.0877 11.8203H11.7734" stroke="white" stroke-width="1.5" stroke-linecap="round" stroke-linejoin="round"/>
<path d="M9.47665 3.55378C10.6857 3.15627 11.2418 2.98047 13.044 2.98047C14.019 2.98047 14.9074 3.03464 15.6982 3.14297L21.8407 8.99297C22.0465 10.1305 22.144 11.463 22.144 13.0013C22.144 20.5196 19.869 23.0221 13.044 23.0221C6.75278 23.0221 4.33076 20.889 3.99609 14.6446" stroke="white" stroke-width="1.5" stroke-linecap="round" stroke-linejoin="round"/>
<path d="M15.0977 3.07031V5.95306C15.0977 7.9659 16.7292 9.59631 18.742 9.59631H21.9389" stroke="white" stroke-width="1.5" stroke-linecap="round" stroke-linejoin="round"/>
<mask id="mask0_7595_4345" style="mask-type:alpha" maskUnits="userSpaceOnUse" x="-1" y="2" width="14" height="13">
<rect x="-0.539062" y="2" width="13" height="13" rx="5" fill="#D9D9D9"/>
</mask>
<g mask="url(#mask0_7595_4345)">
<path d="M5.51052 13.9154C4.91597 13.9154 4.41445 13.4726 4.34071 12.8827L4.29901 12.5491C4.27076 12.3231 4.1159 12.138 3.92135 12.0195V12.0195V12.0195C3.72713 11.9013 3.4886 11.8702 3.27897 11.9583L2.98766 12.0807C2.42602 12.3167 1.77651 12.0985 1.47128 11.5712L1.04164 10.8292C0.741212 10.3102 0.874559 9.64876 1.35258 9.28676L1.76416 8.97508C1.85442 8.90673 1.89688 8.79473 1.89688 8.68151V8.68151V8.31589V8.31589C1.89688 8.20266 1.85442 8.09066 1.76416 8.02231L1.35258 7.71063C0.874559 7.34864 0.741212 6.68717 1.04164 6.16824L1.47128 5.42615C1.77651 4.89893 2.42602 4.68072 2.98766 4.9167L3.27371 5.03689C3.4866 5.12634 3.72866 5.09422 3.92813 4.97786V4.97786V4.97786C4.12235 4.86456 4.27034 4.67767 4.29823 4.45454L4.33906 4.12786C4.41375 3.53039 4.92164 3.08203 5.52376 3.08203H6.40823C7.00279 3.08203 7.5043 3.52476 7.57805 4.11472L7.61974 4.44829C7.64799 4.67429 7.80285 4.85944 7.9974 4.97786V4.97786V4.97786C8.19162 5.09609 8.43015 5.12718 8.63978 5.0391L8.93109 4.9167C9.49273 4.68072 10.1422 4.89893 10.4475 5.42615L10.8771 6.16824C11.1775 6.68717 11.0442 7.34864 10.5662 7.71063L10.1546 8.02231C10.0643 8.09066 10.0219 8.20266 10.0219 8.31589V8.31589V8.68151V8.68151C10.0219 8.79327 10.0535 8.90879 10.1426 8.97625L10.6038 9.3255C11.0526 9.66537 11.1778 10.2864 10.8957 10.7736L10.43 11.578C10.1273 12.101 9.48238 12.3165 8.92599 12.0808L8.6446 11.9615C8.43208 11.8715 8.19 11.9032 7.99063 12.0195V12.0195V12.0195C7.7964 12.1328 7.64841 12.3197 7.62052 12.5429L7.57969 12.8695C7.505 13.467 6.99711 13.9154 6.39499 13.9154H5.51052ZM5.35229 12.2986C5.38964 12.6032 5.64828 12.832 5.95511 12.832V12.832C6.25979 12.832 6.51732 12.6063 6.55721 12.3042L6.59464 12.0208C6.64446 11.6436 6.92541 11.3473 7.26703 11.1797C7.33127 11.1482 7.39417 11.1144 7.45573 11.0784C7.51511 11.0436 7.57325 11.0071 7.63013 10.9688C7.94455 10.7568 8.34093 10.6652 8.69128 10.8103L8.96315 10.9229C9.24333 11.0389 9.5661 10.9288 9.71697 10.6657V10.6657C9.86803 10.4024 9.7997 10.0677 9.55748 9.88466L9.14484 9.57278C8.94955 9.42517 8.88013 9.16804 8.91146 8.92526V8.92526C8.92951 8.78533 8.93854 8.64314 8.93854 8.4987C8.93854 8.35425 8.92951 8.21207 8.91146 8.07214V8.07214C8.88013 7.82935 8.94955 7.57222 9.14484 7.42462L9.55931 7.11135C9.80049 6.92907 9.86852 6.5959 9.71812 6.33365V6.33365C9.56692 6.07002 9.24257 5.96094 8.96279 6.07963L8.69935 6.1914C8.34614 6.34124 7.9448 6.24428 7.62792 6.02796C7.57174 5.98961 7.51434 5.95329 7.45573 5.91901C7.39403 5.88292 7.33097 5.84908 7.26656 5.81749C6.92578 5.65036 6.6467 5.35306 6.6005 4.97632L6.56646 4.69877C6.52911 4.39422 6.27047 4.16536 5.96364 4.16536V4.16536C5.65896 4.16536 5.40143 4.39111 5.36154 4.69317L5.32411 4.97655C5.27429 5.3538 4.99334 5.65011 4.65172 5.81772C4.58748 5.84924 4.52458 5.88301 4.46302 5.91901C4.40364 5.95375 4.3455 5.99029 4.28862 6.02864C3.9742 6.24062 3.57782 6.33222 3.22747 6.18713L2.95377 6.07377C2.67463 5.95817 2.35308 6.06785 2.20277 6.32993V6.32993C2.05143 6.59381 2.12121 6.92916 2.36524 7.11077L2.76692 7.40969C2.96693 7.55853 3.04024 7.81824 3.00729 8.06536V8.06536C2.98924 8.20078 2.98021 8.34523 2.98021 8.4987C2.98021 8.64314 2.98924 8.78307 3.00729 8.91849V8.91849C3.04029 9.16598 2.96797 9.4261 2.76879 9.57665L2.35944 9.88604C2.11826 10.0683 2.05023 10.4015 2.20063 10.6637V10.6637C2.35183 10.9274 2.67618 11.0365 2.95596 10.9178L3.2194 10.806C3.57261 10.6562 3.97395 10.7531 4.29083 10.9694C4.34701 11.0078 4.40441 11.0441 4.46302 11.0784C4.52473 11.1145 4.58778 11.1483 4.65219 11.1799C4.99297 11.347 5.27205 11.6443 5.31825 12.0211L5.35229 12.2986ZM5.98646 10.3945C6.51007 10.3945 6.95694 10.2095 7.32708 9.83932C7.69722 9.46918 7.88229 9.02231 7.88229 8.4987C7.88229 7.97509 7.69722 7.52821 7.32708 7.15807C6.95694 6.78793 6.51007 6.60286 5.98646 6.60286C5.45382 6.60286 5.00469 6.78793 4.63906 7.15807C4.27344 7.52821 4.09063 7.97509 4.09063 8.4987C4.09063 9.02231 4.27344 9.46918 4.63906 9.83932C5.00469 10.2095 5.45382 10.3945 5.98646 10.3945Z" fill="white"/>
</g>
</svg>
