<svg width="28" height="28" viewBox="0 0 28 28" fill="none" xmlns="http://www.w3.org/2000/svg">
<g id="Curved/Paper">
<g id="Paper">
<path id="Stroke 2" d="M20 13.5H13" stroke="white" stroke-width="1.5" stroke-linecap="round" stroke-linejoin="round"/>
<path id="Stroke 6" d="M20 16.5H13" stroke="white" stroke-width="1.5" stroke-linecap="round" stroke-linejoin="round"/>
<path id="Stroke 7" d="M20 19.5H13" stroke="white" stroke-width="1.5" stroke-linecap="round" stroke-linejoin="round"/>
<path id="Vector 55" d="M7.5 12.5L7.92031 12.9203C8.25738 13.2574 8.7855 13.3097 9.18212 13.0453L11.5 11.5" stroke="white" stroke-linecap="round"/>
<path id="Vector 56" d="M7.5 16L7.92031 16.4203C8.25738 16.7574 8.7855 16.8097 9.18212 16.5453L11.5 15" stroke="white" stroke-linecap="round"/>
<path id="Vector 57" d="M7.5 19.5L7.92031 19.9203C8.25738 20.2574 8.7855 20.3097 9.18212 20.0453L11.5 18.5" stroke="white" stroke-linecap="round"/>
<path id="Stroke 3" fill-rule="evenodd" clip-rule="evenodd" d="M23.5195 9.65483L16.9045 3.37369C16.0528 3.25738 15.0961 3.19922 14.0461 3.19922C6.70781 3.19922 4.25781 5.89778 4.25781 13.9586C4.25781 22.031 6.70781 24.7179 14.0461 24.7179C21.3961 24.7179 23.8461 22.031 23.8461 13.9586C23.8461 12.3069 23.7411 10.8762 23.5195 9.65483Z" stroke="white" stroke-width="1.5" stroke-linecap="round" stroke-linejoin="round"/>
<path id="Stroke 5" d="M16.2578 3.29688V6.39208C16.2578 8.55326 18.0148 10.3038 20.1825 10.3038H23.6253" stroke="white" stroke-width="1.5" stroke-linecap="round" stroke-linejoin="round"/>
</g>
</g>
</svg>
