<svg width="20" height="20" viewBox="0 0 20 20" fill="none" xmlns="http://www.w3.org/2000/svg">
<g clip-path="url(#clip0_8569_3550)">
<path d="M4.43242 12.0862L3.73625 14.6851L1.19176 14.7389C0.431328 13.3285 0 11.7148 0 9.99991C0 8.34167 0.403281 6.77792 1.11813 5.401H1.11867L3.38398 5.81631L4.37633 8.06803C4.16863 8.67354 4.05543 9.32354 4.05543 9.99991C4.05551 10.734 4.18848 11.4373 4.43242 12.0862Z" fill="#FBBB00"/>
<path d="M19.8248 8.13184C19.9396 8.73676 19.9995 9.36148 19.9995 9.99996C19.9995 10.7159 19.9242 11.4143 19.7808 12.0879C19.294 14.3802 18.0221 16.3818 16.26 17.7983L16.2594 17.7978L13.4062 17.6522L13.0023 15.1313C14.1715 14.4456 15.0853 13.3725 15.5666 12.0879H10.2194V8.13184H15.6446H19.8248Z" fill="#518EF8"/>
<path d="M16.2591 17.7978L16.2596 17.7984C14.5459 19.1758 12.369 20 9.99922 20C6.19098 20 2.88 17.8715 1.19098 14.739L4.43164 12.0863C5.27613 14.3401 7.45031 15.9445 9.99922 15.9445C11.0948 15.9445 12.1212 15.6484 13.002 15.1313L16.2591 17.7978Z" fill="#28B446"/>
<path d="M16.3823 2.30219L13.1427 4.95438C12.2312 4.38461 11.1537 4.05547 9.99931 4.05547C7.39271 4.05547 5.17786 5.73348 4.37567 8.06813L1.11798 5.40109H1.11743C2.78173 2.19231 6.13446 0 9.99931 0C12.4257 0 14.6504 0.864297 16.3823 2.30219Z" fill="#F14336"/>
</g>
<defs>
<clipPath id="clip0_8569_3550">
<rect width="20" height="20" fill="white"/>
</clipPath>
</defs>
</svg>
