<svg width="58" height="58" viewBox="0 0 58 58" fill="none" xmlns="http://www.w3.org/2000/svg">
<path d="M53.4688 18.125H42.5938C42.3534 18.125 42.1229 18.0295 41.9529 17.8596C41.783 17.6896 41.6875 17.4591 41.6875 17.2188V15.4062C41.6875 13.7238 42.3559 12.1102 43.5455 10.9205C44.7352 9.73086 46.3488 9.0625 48.0312 9.0625C49.7137 9.0625 51.3273 9.73086 52.517 10.9205C53.7066 12.1102 54.375 13.7238 54.375 15.4062V17.2188C54.375 17.4591 54.2795 17.6896 54.1096 17.8596C53.9396 18.0295 53.7091 18.125 53.4688 18.125ZM43.5 16.3125H52.5625V15.4062C52.5625 14.2045 52.0851 13.0519 51.2353 12.2022C50.3856 11.3524 49.233 10.875 48.0312 10.875C46.8295 10.875 45.6769 11.3524 44.8272 12.2022C43.9774 13.0519 43.5 14.2045 43.5 15.4062V16.3125ZM37.1562 48.9375H9.96875C8.28628 48.9375 6.67273 48.2691 5.48304 47.0795C4.29336 45.8898 3.625 44.2762 3.625 42.5938V40.7812C3.625 40.5409 3.72048 40.3104 3.89043 40.1404C4.06039 39.9705 4.2909 39.875 4.53125 39.875H31.7188C31.9591 39.875 32.1896 39.9705 32.3596 40.1404C32.5295 40.3104 32.625 40.5409 32.625 40.7812V42.5938C32.625 43.7955 33.1024 44.9481 33.9522 45.7978C34.8019 46.6476 35.9545 47.125 37.1562 47.125C37.3966 47.125 37.6271 47.2205 37.7971 47.3904C37.967 47.5604 38.0625 47.7909 38.0625 48.0312C38.0625 48.2716 37.967 48.5021 37.7971 48.6721C37.6271 48.842 37.3966 48.9375 37.1562 48.9375ZM5.4375 41.6875V42.5938C5.4375 43.7955 5.9149 44.9481 6.76467 45.7978C7.61445 46.6476 8.76699 47.125 9.96875 47.125H32.7247C32.1204 46.535 31.64 45.8303 31.3116 45.0522C30.9832 44.2741 30.8136 43.4383 30.8125 42.5938V41.6875H5.4375Z" fill="#224091"/>
<path d="M37.1562 48.9375C35.4738 48.9375 33.8602 48.2691 32.6705 47.0795C31.4809 45.8898 30.8125 44.2762 30.8125 42.5938V41.6875H15.4062C15.1659 41.6875 14.9354 41.592 14.7654 41.4221C14.5955 41.2521 14.5 41.0216 14.5 40.7812V15.4062C14.5 13.7238 15.1684 12.1102 16.358 10.9205C17.5477 9.73086 19.1613 9.0625 20.8438 9.0625H48.0312C48.2716 9.0625 48.5021 9.15798 48.6721 9.32793C48.842 9.49789 48.9375 9.7284 48.9375 9.96875C48.9375 10.2091 48.842 10.4396 48.6721 10.6096C48.5021 10.7795 48.2716 10.875 48.0312 10.875C46.8295 10.875 45.6769 11.3524 44.8272 12.2022C43.9774 13.0519 43.5 14.2045 43.5 15.4062V27.9578C43.5075 28.1612 43.4463 28.3612 43.3263 28.5256C43.2063 28.69 43.0345 28.8092 42.8384 28.8641L38.0625 30.1872V37.2831C38.0578 38.828 38.4046 40.3537 39.0766 41.7448C39.7486 43.1359 40.7282 44.3559 41.9412 45.3125C42.037 45.3841 42.1165 45.4753 42.1743 45.58C42.2321 45.6847 42.267 45.8005 42.2766 45.9197C42.2907 46.0385 42.2811 46.1589 42.2485 46.274C42.2158 46.3891 42.1607 46.4966 42.0862 46.5903C41.9478 46.7619 41.7996 46.9253 41.6422 47.0797C41.0564 47.6732 40.3577 48.1434 39.5872 48.4625C38.8167 48.7816 37.9902 48.9431 37.1562 48.9375ZM16.3125 39.875H31.7188C31.9591 39.875 32.1896 39.9705 32.3596 40.1404C32.5295 40.3104 32.625 40.5409 32.625 40.7812V42.5938C32.6239 43.4564 32.869 44.3014 33.3316 45.0296C33.7942 45.7577 34.4551 46.3386 35.2365 46.7041C36.0179 47.0696 36.8874 47.2044 37.7428 47.0928C38.5982 46.9811 39.4039 46.6276 40.0653 46.0737C38.8582 44.9503 37.8962 43.5895 37.2397 42.0768C36.5832 40.5642 36.2462 38.9321 36.25 37.2831V29.5075C36.2425 29.3041 36.3037 29.1041 36.4237 28.9397C36.5437 28.7753 36.7155 28.6561 36.9116 28.6012L41.6875 27.2781V15.4062C41.6831 14.5717 41.846 13.7447 42.1667 12.9742C42.4873 12.2037 42.9592 11.5053 43.5544 10.9203V10.875H20.8438C19.642 10.875 18.4894 11.3524 17.6397 12.2022C16.7899 13.0519 16.3125 14.2045 16.3125 15.4062V39.875Z" fill="#224091"/>
<path d="M37.1562 19.0312H20.8438C20.6034 19.0312 20.3729 18.9358 20.2029 18.7658C20.033 18.5959 19.9375 18.3654 19.9375 18.125C19.9375 17.8846 20.033 17.6541 20.2029 17.4842C20.3729 17.3142 20.6034 17.2188 20.8438 17.2188H37.1562C37.3966 17.2188 37.6271 17.3142 37.7971 17.4842C37.967 17.6541 38.0625 17.8846 38.0625 18.125C38.0625 18.3654 37.967 18.5959 37.7971 18.7658C37.6271 18.9358 37.3966 19.0312 37.1562 19.0312ZM37.1562 24.4688H20.8438C20.6034 24.4688 20.3729 24.3733 20.2029 24.2033C20.033 24.0334 19.9375 23.8029 19.9375 23.5625C19.9375 23.3221 20.033 23.0916 20.2029 22.9217C20.3729 22.7517 20.6034 22.6562 20.8438 22.6562H37.1562C37.3966 22.6562 37.6271 22.7517 37.7971 22.9217C37.967 23.0916 38.0625 23.3221 38.0625 23.5625C38.0625 23.8029 37.967 24.0334 37.7971 24.2033C37.6271 24.3733 37.3966 24.4688 37.1562 24.4688ZM33.5312 29.9062H20.8438C20.6034 29.9062 20.3729 29.8108 20.2029 29.6408C20.033 29.4709 19.9375 29.2404 19.9375 29C19.9375 28.7596 20.033 28.5291 20.2029 28.3592C20.3729 28.1892 20.6034 28.0938 20.8438 28.0938H33.5312C33.7716 28.0938 34.0021 28.1892 34.1721 28.3592C34.342 28.5291 34.4375 28.7596 34.4375 29C34.4375 29.2404 34.342 29.4709 34.1721 29.6408C34.0021 29.8108 33.7716 29.9062 33.5312 29.9062ZM33.5312 35.3438H20.8438C20.6034 35.3438 20.3729 35.2483 20.2029 35.0783C20.033 34.9084 19.9375 34.6779 19.9375 34.4375C19.9375 34.1971 20.033 33.9666 20.2029 33.7967C20.3729 33.6267 20.6034 33.5312 20.8438 33.5312H33.5312C33.7716 33.5312 34.0021 33.6267 34.1721 33.7967C34.342 33.9666 34.4375 34.1971 34.4375 34.4375C34.4375 34.6779 34.342 34.9084 34.1721 35.0783C34.0021 35.2483 33.7716 35.3438 33.5312 35.3438ZM45.3125 48.9375C45.2315 48.9507 45.1488 48.9507 45.0678 48.9375C42.5306 48.2181 40.2971 46.6911 38.7059 44.588C37.1147 42.4849 36.2525 39.9204 36.25 37.2831V29.5075C36.2425 29.3041 36.3037 29.1041 36.4237 28.9397C36.5437 28.7753 36.7155 28.6561 36.9116 28.6012L45.0678 26.2812C45.2278 26.2364 45.3972 26.2364 45.5572 26.2812L53.7134 28.6012C53.9095 28.6561 54.0813 28.7753 54.2013 28.9397C54.3213 29.1041 54.3825 29.3041 54.375 29.5075V37.2831C54.371 39.92 53.5083 42.4838 51.9173 44.5866C50.3263 46.6894 48.0936 48.2167 45.5572 48.9375C45.4762 48.9507 45.3935 48.9507 45.3125 48.9375ZM38.0625 30.1872V37.2831C38.0578 38.828 38.4046 40.3537 39.0766 41.7448C39.7486 43.1359 40.7282 44.3559 41.9412 45.3125C42.9422 46.1216 44.0856 46.7363 45.3125 47.125C47.405 46.4712 49.2353 45.1687 50.5386 43.406C51.8419 41.6432 52.5507 39.5116 52.5625 37.3194V30.1962L45.3125 28.0938L38.0625 30.1872Z" fill="#224091"/>
<path d="M44.4061 40.7812C44.2868 40.7819 44.1686 40.7591 44.0581 40.714C43.9477 40.6689 43.8473 40.6024 43.7626 40.5184L41.497 38.2528C41.4125 38.1683 41.3455 38.068 41.2997 37.9576C41.254 37.8472 41.2305 37.7289 41.2305 37.6094C41.2305 37.4899 41.254 37.3715 41.2997 37.2611C41.3455 37.1507 41.4125 37.0504 41.497 36.9659C41.5815 36.8814 41.6818 36.8144 41.7922 36.7687C41.9026 36.7229 42.0209 36.6994 42.1404 36.6994C42.2599 36.6994 42.3783 36.7229 42.4887 36.7687C42.5991 36.8144 42.6994 36.8814 42.7839 36.9659L44.4061 38.5972L48.2939 34.7003C48.4645 34.5296 48.696 34.4338 48.9373 34.4338C49.1786 34.4338 49.4101 34.5296 49.5807 34.7003C49.7514 34.8709 49.8473 35.1024 49.8473 35.3437C49.8473 35.5851 49.7514 35.8165 49.5807 35.9872L45.0495 40.5184C44.9648 40.6024 44.8644 40.6689 44.754 40.714C44.6436 40.7591 44.5253 40.7819 44.4061 40.7812Z" fill="#224091"/>
</svg>
