<svg width="58" height="58" viewBox="0 0 58 58" fill="none" xmlns="http://www.w3.org/2000/svg">
<path d="M11.29 22.5297H22.5833C22.7901 22.5297 22.9884 22.4475 23.1346 22.3013C23.2808 22.1551 23.363 21.9568 23.363 21.75C23.363 21.5432 23.2808 21.3449 23.1346 21.1987C22.9884 21.0525 22.7901 20.9703 22.5833 20.9703H11.29C11.0833 20.9703 10.8849 21.0525 10.7387 21.1987C10.5925 21.3449 10.5104 21.5432 10.5104 21.75C10.5104 21.9568 10.5925 22.1551 10.7387 22.3013C10.8849 22.4475 11.0833 22.5297 11.29 22.5297ZM33.2979 28.4469H11.29C11.0833 28.4469 10.8849 28.529 10.7387 28.6752C10.5925 28.8215 10.5104 29.0198 10.5104 29.2266C10.5104 29.4333 10.5925 29.6317 10.7387 29.7779C10.8849 29.9241 11.0833 30.0063 11.29 30.0063H33.2979C33.5047 30.0063 33.703 29.9241 33.8492 29.7779C33.9954 29.6317 34.0776 29.4333 34.0776 29.2266C34.0776 29.0198 33.9954 28.8215 33.8492 28.6752C33.703 28.529 33.5047 28.4469 33.2979 28.4469ZM33.2979 35.9234H11.29C11.0833 35.9234 10.8849 36.0056 10.7387 36.1518C10.5925 36.298 10.5104 36.4963 10.5104 36.7031C10.5104 36.9099 10.5925 37.1082 10.7387 37.2544C10.8849 37.4007 11.0833 37.4828 11.29 37.4828H33.2979C33.5047 37.4828 33.703 37.4007 33.8492 37.2544C33.9954 37.1082 34.0776 36.9099 34.0776 36.7031C34.0776 36.4963 33.9954 36.298 33.8492 36.1518C33.703 36.0056 33.5047 35.9234 33.2979 35.9234Z" fill="#224091" stroke="#224091" stroke-width="0.2"/>
<path d="M41.3609 53.745L36.6381 49.7964L36.6371 49.7955C36.3625 49.572 36.0195 49.4493 35.6654 49.4479C35.3114 49.4465 34.9675 49.5665 34.6911 49.7878L34.6907 49.788L28.9495 54.4249L23.2624 49.7844L23.2614 49.7835C22.9845 49.5639 22.6411 49.4449 22.2877 49.4462C21.9342 49.4474 21.5917 49.5688 21.3164 49.7904L21.3159 49.7909L15.6361 54.4256L9.88305 49.7818L9.88205 49.781C9.60298 49.5616 9.2573 49.4441 8.90231 49.4481C8.54733 49.452 8.20435 49.5772 7.93025 49.8028L7.92984 49.8031L3.15859 53.7737V13.4672H31.7131C31.7104 13.4972 31.7076 13.5271 31.7049 13.5571C31.6801 13.8278 31.6551 14.101 31.6551 14.3876L41.3609 53.745ZM41.3609 53.745V26.4352M41.3609 53.745V26.4352M41.3609 26.4352C38.6251 25.8402 36.1725 24.3312 34.4079 22.1555C32.6262 19.9587 31.6542 17.2161 31.6551 14.3876L41.3609 26.4352ZM1.59921 53.9363L1.59923 53.9378C1.60353 54.2113 1.68613 54.4777 1.83724 54.7056C1.98812 54.9332 2.20099 55.1128 2.45069 55.2233C2.71826 55.3486 3.01581 55.3959 3.30906 55.3595C3.60267 55.3231 3.88 55.2044 4.10904 55.0171L4.10976 55.0165L8.91732 51.0081L8.91742 51.0081L8.91763 51.008L14.672 55.6521L14.6732 55.653C14.9504 55.8702 15.2929 55.9873 15.6451 55.9851C15.9973 55.9829 16.3383 55.8616 16.6128 55.6409L16.6134 55.6405L22.2934 51.0059L27.9816 55.6469L27.9826 55.6477C28.2573 55.866 28.5977 55.9848 28.9485 55.9849H28.9488C29.3019 55.9843 29.6446 55.865 29.9218 55.6462L29.9226 55.6455L35.6675 51.0081L40.4722 55.0159C40.6959 55.2033 40.9687 55.3224 41.2582 55.359C41.5474 55.3955 41.841 55.3481 42.104 55.2224C42.35 55.1099 42.5581 54.9285 42.7031 54.7C42.8481 54.4715 42.9237 54.2057 42.9207 53.935C42.9207 53.9349 42.9207 53.9348 42.9207 53.9347L42.9207 26.6685C43.3228 26.6994 43.6418 26.7159 44.0056 26.7159C50.8154 26.7159 56.3671 21.187 56.3671 14.3766C56.3654 11.1045 55.0648 7.96696 52.7511 5.65328C50.4374 3.3396 47.2998 2.03906 44.0277 2.03739C41.1685 2.03543 38.3974 3.02677 36.1883 4.8419C34.0003 6.63961 32.4981 9.13479 31.9326 11.9078H2.40156C1.98449 11.9078 1.59922 12.2006 1.59922 12.6435L1.59921 53.9363ZM44.0276 25.1565C41.8934 25.1565 39.8071 24.5236 38.0326 23.3379C36.2581 22.1521 34.875 20.4668 34.0583 18.4951C33.2416 16.5233 33.0279 14.3536 33.4443 12.2604C33.8607 10.1672 34.8884 8.24444 36.3975 6.73532C37.9067 5.2262 39.8294 4.19849 41.9226 3.78213C44.0159 3.36577 46.1855 3.57947 48.1573 4.39621C50.1291 5.21295 51.8144 6.59604 53.0001 8.37058C54.1857 10.1451 54.8186 12.2314 54.8186 14.3655C54.8154 17.2265 53.6775 19.9694 51.6545 21.9924C49.6314 24.0154 46.8885 25.1533 44.0276 25.1565Z" fill="#224091" stroke="#224091" stroke-width="0.2"/>
<path d="M47.8042 11.7523V11.7521C47.8031 10.879 47.5 10.0332 46.9462 9.35825C46.4098 8.70445 45.6703 8.24993 44.8465 8.06604V7.25C44.8465 7.04321 44.7643 6.8449 44.6181 6.69868C44.4719 6.55246 44.2736 6.47031 44.0668 6.47031C43.86 6.47031 43.6617 6.55246 43.5154 6.69868C43.3692 6.8449 43.2871 7.04321 43.2871 7.25V8.05068C42.3905 8.22992 41.5882 8.7288 41.0308 9.45598C40.4563 10.2054 40.1834 11.1429 40.2661 12.0836C40.3487 13.0243 40.7808 13.8999 41.4772 14.5376C42.1736 15.1754 43.0837 15.5291 44.028 15.5289C44.4665 15.5289 44.8951 15.6589 45.2597 15.9025C45.6242 16.146 45.9084 16.4923 46.0762 16.8973C46.244 17.3024 46.2879 17.7482 46.2024 18.1782C46.1168 18.6082 45.9057 19.0032 45.5957 19.3133C45.2856 19.6233 44.8906 19.8344 44.4606 19.92C44.0306 20.0055 43.5848 19.9616 43.1797 19.7938C42.7747 19.626 42.4285 19.3418 42.1849 18.9773C41.9413 18.6127 41.8113 18.1841 41.8113 17.7456C41.8113 17.5388 41.7292 17.3405 41.5829 17.1943C41.4367 17.0481 41.2384 16.9659 41.0316 16.9659C40.8248 16.9659 40.6265 17.0481 40.4803 17.1943C40.3341 17.3405 40.2519 17.5388 40.2519 17.7456L40.2519 17.7458C40.253 18.5506 40.5108 19.3341 40.9878 19.9824C41.4502 20.6109 42.0952 21.0805 42.834 21.3278V22.543C42.834 22.7498 42.9161 22.9481 43.0623 23.0943C43.2085 23.2405 43.4069 23.3227 43.6136 23.3227C43.8204 23.3227 44.0187 23.2405 44.165 23.0943C44.3112 22.9481 44.3933 22.7498 44.3933 22.543V21.502C45.3332 21.4105 46.206 20.9699 46.8381 20.2652C47.4909 19.5374 47.8359 18.5848 47.8006 17.6078C47.7653 16.6308 47.3524 15.7056 46.6488 15.0268C45.9453 14.3482 45.0061 13.9688 44.0287 13.9685C43.4465 13.9602 42.8909 13.7231 42.482 13.3084C42.0729 12.8936 41.8436 12.3345 41.8436 11.7519C41.8436 11.1693 42.0729 10.6102 42.482 10.1954C42.8908 9.78076 43.4464 9.54377 44.0287 9.53542C44.6162 9.53628 45.1794 9.77004 45.5948 10.1855C46.0104 10.6011 46.2442 11.1646 46.2449 11.7524C46.2449 11.9591 46.327 12.1574 46.4732 12.3036C46.6194 12.4498 46.8178 12.5319 47.0245 12.5319C47.2313 12.5319 47.4296 12.4498 47.5759 12.3036C47.7221 12.1574 47.8042 11.959 47.8042 11.7523Z" fill="#224091" stroke="#224091" stroke-width="0.2"/>
</svg>
