<svg width="58" height="58" viewBox="0 0 58 58" fill="none" xmlns="http://www.w3.org/2000/svg">
<path d="M48.9257 44.4633C48.9257 44.4434 48.9375 44.4262 48.9375 44.4062V4.53125C48.9375 3.81019 48.6511 3.11867 48.1412 2.6088C47.6313 2.09894 46.9398 1.8125 46.2188 1.8125H11.7812C11.0602 1.8125 10.3687 2.09894 9.8588 2.6088C9.34894 3.11867 9.0625 3.81019 9.0625 4.53125V53.4688C9.0625 54.1898 9.34894 54.8813 9.8588 55.3912C10.3687 55.9011 11.0602 56.1875 11.7812 56.1875H37.1562C37.3965 56.187 37.6268 56.0915 37.797 55.922L48.672 45.047C48.7477 44.97 48.8091 44.88 48.8532 44.7814C48.8659 44.7533 48.8732 44.7253 48.8831 44.6963C48.908 44.621 48.9224 44.5426 48.9257 44.4633ZM10.875 53.4688V4.53125C10.875 4.2909 10.9705 4.06039 11.1404 3.89043C11.3104 3.72048 11.5409 3.625 11.7812 3.625H46.2188C46.4591 3.625 46.6896 3.72048 46.8596 3.89043C47.0295 4.06039 47.125 4.2909 47.125 4.53125V43.5H38.9688C38.2477 43.5 37.5562 43.7864 37.0463 44.2963C36.5364 44.8062 36.25 45.4977 36.25 46.2188V54.375H11.7812C11.5409 54.375 11.3104 54.2795 11.1404 54.1096C10.9705 53.9396 10.875 53.7091 10.875 53.4688ZM38.0625 53.0936V46.2188C38.0625 45.9784 38.158 45.7479 38.3279 45.5779C38.4979 45.408 38.7284 45.3125 38.9688 45.3125H45.8436L38.0625 53.0936Z" fill="#224091"/>
<path d="M20.8438 19.9375H17.2188C16.9784 19.9375 16.7479 19.842 16.5779 19.6721C16.408 19.5021 16.3125 19.2716 16.3125 19.0312C16.3125 18.7909 16.217 18.5604 16.0471 18.3904C15.8771 18.2205 15.6466 18.125 15.4062 18.125C15.1659 18.125 14.9354 18.2205 14.7654 18.3904C14.5955 18.5604 14.5 18.7909 14.5 19.0312C14.5 19.7523 14.7864 20.4438 15.2963 20.9537C15.8062 21.4636 16.4977 21.75 17.2188 21.75H18.125V22.6562C18.125 22.8966 18.2205 23.1271 18.3904 23.2971C18.5604 23.467 18.7909 23.5625 19.0312 23.5625C19.2716 23.5625 19.5021 23.467 19.6721 23.2971C19.842 23.1271 19.9375 22.8966 19.9375 22.6562V21.75H20.8438C21.5648 21.75 22.2563 21.4636 22.7662 20.9537C23.2761 20.4438 23.5625 19.7523 23.5625 19.0312V17.2188C23.5625 16.4977 23.2761 15.8062 22.7662 15.2963C22.2563 14.7864 21.5648 14.5 20.8438 14.5H17.2188C16.9784 14.5 16.7479 14.4045 16.5779 14.2346C16.408 14.0646 16.3125 13.8341 16.3125 13.5938V11.7812C16.3125 11.5409 16.408 11.3104 16.5779 11.1404C16.7479 10.9705 16.9784 10.875 17.2188 10.875H20.8438C21.0841 10.875 21.3146 10.9705 21.4846 11.1404C21.6545 11.3104 21.75 11.5409 21.75 11.7812C21.75 12.0216 21.8455 12.2521 22.0154 12.4221C22.1854 12.592 22.4159 12.6875 22.6562 12.6875C22.8966 12.6875 23.1271 12.592 23.2971 12.4221C23.467 12.2521 23.5625 12.0216 23.5625 11.7812C23.5625 11.0602 23.2761 10.3687 22.7662 9.8588C22.2563 9.34894 21.5648 9.0625 20.8438 9.0625H19.9375V8.15625C19.9375 7.9159 19.842 7.68539 19.6721 7.51543C19.5021 7.34548 19.2716 7.25 19.0312 7.25C18.7909 7.25 18.5604 7.34548 18.3904 7.51543C18.2205 7.68539 18.125 7.9159 18.125 8.15625V9.0625H17.2188C16.4977 9.0625 15.8062 9.34894 15.2963 9.8588C14.7864 10.3687 14.5 11.0602 14.5 11.7812V13.5938C14.5 14.3148 14.7864 15.0063 15.2963 15.5162C15.8062 16.0261 16.4977 16.3125 17.2188 16.3125H20.8438C21.0841 16.3125 21.3146 16.408 21.4846 16.5779C21.6545 16.7479 21.75 16.9784 21.75 17.2188V19.0312C21.75 19.2716 21.6545 19.5021 21.4846 19.6721C21.3146 19.842 21.0841 19.9375 20.8438 19.9375ZM28.0938 11.7812H42.5938C42.8341 11.7812 43.0646 11.6858 43.2346 11.5158C43.4045 11.3459 43.5 11.1154 43.5 10.875C43.5 10.6346 43.4045 10.4041 43.2346 10.2342C43.0646 10.0642 42.8341 9.96875 42.5938 9.96875H28.0938C27.8534 9.96875 27.6229 10.0642 27.4529 10.2342C27.283 10.4041 27.1875 10.6346 27.1875 10.875C27.1875 11.1154 27.283 11.3459 27.4529 11.5158C27.6229 11.6858 27.8534 11.7812 28.0938 11.7812ZM28.0938 19.0312H42.5938C42.8341 19.0312 43.0646 18.9358 43.2346 18.7658C43.4045 18.5959 43.5 18.3654 43.5 18.125C43.5 17.8846 43.4045 17.6541 43.2346 17.4842C43.0646 17.3142 42.8341 17.2188 42.5938 17.2188H28.0938C27.8534 17.2188 27.6229 17.3142 27.4529 17.4842C27.283 17.6541 27.1875 17.8846 27.1875 18.125C27.1875 18.3654 27.283 18.5959 27.4529 18.7658C27.6229 18.9358 27.8534 19.0312 28.0938 19.0312ZM28.0938 26.2812H42.5938C42.8341 26.2812 43.0646 26.1858 43.2346 26.0158C43.4045 25.8459 43.5 25.6154 43.5 25.375C43.5 25.1346 43.4045 24.9041 43.2346 24.7342C43.0646 24.5642 42.8341 24.4688 42.5938 24.4688H28.0938C27.8534 24.4688 27.6229 24.5642 27.4529 24.7342C27.283 24.9041 27.1875 25.1346 27.1875 25.375C27.1875 25.6154 27.283 25.8459 27.4529 26.0158C27.6229 26.1858 27.8534 26.2812 28.0938 26.2812ZM15.4062 33.5312H42.5938C42.8341 33.5312 43.0646 33.4358 43.2346 33.2658C43.4045 33.0959 43.5 32.8654 43.5 32.625C43.5 32.3846 43.4045 32.1541 43.2346 31.9842C43.0646 31.8142 42.8341 31.7188 42.5938 31.7188H15.4062C15.1659 31.7188 14.9354 31.8142 14.7654 31.9842C14.5955 32.1541 14.5 32.3846 14.5 32.625C14.5 32.8654 14.5955 33.0959 14.7654 33.2658C14.9354 33.4358 15.1659 33.5312 15.4062 33.5312ZM42.5938 40.7812C42.8341 40.7812 43.0646 40.6858 43.2346 40.5158C43.4045 40.3459 43.5 40.1154 43.5 39.875C43.5 39.6346 43.4045 39.4041 43.2346 39.2342C43.0646 39.0642 42.8341 38.9688 42.5938 38.9688H15.4062C15.1659 38.9688 14.9354 39.0642 14.7654 39.2342C14.5955 39.4041 14.5 39.6346 14.5 39.875C14.5 40.1154 14.5955 40.3459 14.7654 40.5158C14.9354 40.6858 15.1659 40.7812 15.4062 40.7812H42.5938Z" fill="#224091"/>
</svg>
