<svg width="20" height="20" viewBox="0 0 20 20" fill="none" xmlns="http://www.w3.org/2000/svg">
<path d="M19 19L14.657 14.657M14.657 14.657C15.3999 13.9141 15.9892 13.0322 16.3912 12.0616C16.7933 11.0909 17.0002 10.0506 17.0002 9.00002C17.0002 7.94942 16.7933 6.90911 16.3913 5.93848C15.9892 4.96785 15.3999 4.08591 14.657 3.34302C13.9141 2.60014 13.0322 2.01084 12.0616 1.6088C11.0909 1.20675 10.0506 0.999817 9.00002 0.999817C7.94942 0.999817 6.90911 1.20675 5.93848 1.6088C4.96785 2.01084 4.08591 2.60014 3.34302 3.34302C1.84269 4.84335 0.999817 6.87824 0.999817 9.00002C0.999817 11.1218 1.84269 13.1567 3.34302 14.657C4.84335 16.1574 6.87824 17.0002 9.00002 17.0002C11.1218 17.0002 13.1567 16.1574 14.657 14.657Z" stroke="#101828" stroke-width="2" stroke-linecap="round" stroke-linejoin="round"/>
</svg>
