<svg width="12" height="20" viewBox="0 0 12 20" fill="none" xmlns="http://www.w3.org/2000/svg">
<g id="Group">
<g id="Group_2">
<g id="Group_3">
<path id="Vector" d="M10.3348 10.4689C10.3348 10.7042 10.3181 10.9375 10.289 11.1687C10.2994 11.0951 10.3098 11.0195 10.3181 10.9459C10.2557 11.3977 10.137 11.8369 9.96218 12.2573C9.98924 12.19 10.0184 12.1228 10.0454 12.0555C9.86851 12.4758 9.63954 12.8688 9.36478 13.2303C9.4085 13.1735 9.45221 13.1168 9.49592 13.06C9.22532 13.4089 8.91517 13.7241 8.56756 13.9973C8.62376 13.9532 8.67996 13.909 8.73616 13.8649C8.37814 14.1423 7.9889 14.3735 7.57259 14.5521C7.6392 14.5248 7.70581 14.4954 7.77242 14.468C7.35611 14.6446 6.91899 14.7644 6.47355 14.8274C6.5464 14.8169 6.62134 14.8064 6.69419 14.798C6.23417 14.8589 5.76791 14.8589 5.30581 14.798C5.37867 14.8085 5.4536 14.819 5.52645 14.8274C5.07893 14.7644 4.64389 14.6446 4.22758 14.468C4.29419 14.4954 4.3608 14.5248 4.42741 14.5521C4.0111 14.3735 3.62186 14.1423 3.26384 13.8649C3.32004 13.909 3.37624 13.9532 3.43244 13.9973C3.08691 13.7241 2.77468 13.411 2.50408 13.06C2.54779 13.1168 2.59151 13.1735 2.63522 13.2303C2.36046 12.8688 2.13149 12.4758 1.95456 12.0555C1.98162 12.1228 2.01076 12.19 2.03782 12.2573C1.86297 11.8369 1.74433 11.3956 1.68188 10.9459C1.69229 11.0195 1.70269 11.0951 1.71102 11.1687C1.6798 10.9354 1.66523 10.7021 1.66523 10.4689C1.66315 10.0296 1.28223 9.60724 0.832618 9.62826C0.383008 9.64927 -0.00207312 9.99812 8.39953e-06 10.4689C0.00417145 11.6898 0.374682 12.9297 1.0824 13.9238C1.27182 14.1906 1.47789 14.4512 1.70478 14.6887C1.92958 14.9241 2.17728 15.1279 2.43539 15.3276C2.91206 15.6953 3.44285 15.9706 4.00694 16.1787C5.14553 16.6032 6.44441 16.6347 7.61006 16.3048C8.74865 15.9811 9.81647 15.3023 10.5721 14.3798C10.7802 14.1255 10.978 13.8607 11.1466 13.577C11.3173 13.2912 11.4526 12.9886 11.5795 12.6797C11.8127 12.1101 11.9334 11.507 11.9833 10.8955C11.9958 10.7547 12 10.6118 12 10.4689C12.0021 10.0296 11.617 9.60724 11.1674 9.62826C10.7136 9.64927 10.3348 9.99812 10.3348 10.4689Z" fill="#101828"/>
</g>
</g>
<g id="Group_4">
<path id="Vector_2" d="M5.99903 12.9823C4.37336 12.9823 3.04535 11.6394 3.04535 10.0002V3.60742C3.04535 1.96613 4.37544 0.625366 5.99903 0.625366C7.6247 0.625366 8.95271 1.96824 8.95271 3.60742V9.99813C8.95271 11.6394 7.6247 12.9823 5.99903 12.9823Z" fill="#101828"/>
<g id="Group_5">
<path id="Vector_3" d="M5.999 12.3518C5.8637 12.3518 5.7284 12.3413 5.59518 12.3245C5.65138 12.3329 5.7055 12.3392 5.7617 12.3476C5.50984 12.3119 5.2663 12.2447 5.03109 12.1459C5.08104 12.1669 5.131 12.1879 5.18096 12.2089C5.00819 12.1354 4.83959 12.045 4.68347 11.9399C4.64601 11.9147 4.60854 11.8874 4.57107 11.8601C4.48365 11.797 4.60646 11.8979 4.62103 11.9C4.60854 11.8979 4.5794 11.8664 4.56691 11.8559C4.49197 11.7949 4.4212 11.7298 4.35459 11.6604C4.29007 11.5953 4.22762 11.528 4.16934 11.4566C4.15477 11.4398 4.1402 11.4209 4.12563 11.4019C4.07983 11.3452 4.22138 11.5322 4.16517 11.4524C4.13811 11.4146 4.11105 11.3767 4.08608 11.3389C3.97784 11.1771 3.88625 11.0048 3.81132 10.8261C3.83213 10.8766 3.85295 10.927 3.87376 10.9774C3.77593 10.74 3.70932 10.4941 3.67393 10.2398C3.68226 10.2965 3.68851 10.3512 3.69683 10.4079C3.6552 10.099 3.66977 9.78167 3.66977 9.46855C3.66977 8.94107 3.66977 8.41359 3.66977 7.88611C3.66977 6.68404 3.66977 5.48197 3.66977 4.28201C3.66977 3.92475 3.65104 3.55698 3.69683 3.20183C3.68851 3.25857 3.68226 3.31321 3.67393 3.36995C3.70932 3.11567 3.77593 2.86979 3.87376 2.63232C3.85295 2.68275 3.83213 2.73319 3.81132 2.78363C3.88417 2.6092 3.97367 2.43898 4.07775 2.28136C4.10273 2.24354 4.12979 2.20571 4.15685 2.16788C4.21929 2.07962 4.11938 2.20361 4.1173 2.21832C4.11938 2.20571 4.1506 2.17629 4.16101 2.16368C4.22138 2.08802 4.2859 2.01657 4.35459 1.94932C4.41912 1.88418 4.48573 1.82113 4.5565 1.76229C4.57315 1.74758 4.59189 1.73287 4.61062 1.71816C4.66682 1.67192 4.48157 1.81483 4.56066 1.75809C4.59813 1.73077 4.6356 1.70345 4.67307 1.67823C4.83334 1.56895 5.00403 1.47648 5.18096 1.40083C5.131 1.42184 5.08104 1.44286 5.03109 1.46387C5.2663 1.3651 5.50984 1.29785 5.7617 1.26213C5.7055 1.27053 5.65138 1.27684 5.59518 1.28524C5.8637 1.24952 6.1343 1.24952 6.40281 1.28524C6.34661 1.27684 6.29249 1.27053 6.23629 1.26213C6.48815 1.29785 6.73169 1.3651 6.9669 1.46387C6.91695 1.44286 6.86699 1.42184 6.81703 1.40083C6.9898 1.47438 7.15841 1.56475 7.31452 1.66982C7.35199 1.69504 7.38945 1.72236 7.42692 1.74968C7.51434 1.81273 7.39154 1.71185 7.37697 1.70975C7.38945 1.71185 7.41859 1.74338 7.43108 1.75388C7.50602 1.81483 7.57679 1.87997 7.6434 1.94932C7.70793 2.01447 7.77037 2.08172 7.82866 2.15317C7.84323 2.16998 7.8578 2.1889 7.87237 2.20781C7.91816 2.26455 7.77662 2.07752 7.83282 2.15737C7.85988 2.1952 7.88694 2.23303 7.91192 2.27086C8.02016 2.43267 8.11174 2.605 8.18668 2.78363C8.16586 2.73319 8.14505 2.68275 8.12423 2.63232C8.22206 2.86979 8.28867 3.11567 8.32406 3.36995C8.31573 3.31321 8.30949 3.25857 8.30116 3.20183C8.34279 3.51075 8.32822 3.82808 8.32822 4.1412C8.32822 4.66869 8.32822 5.19617 8.32822 5.72365C8.32822 6.92571 8.32822 8.12778 8.32822 9.32775C8.32822 9.68501 8.34695 10.0528 8.30116 10.4079C8.30949 10.3512 8.31573 10.2965 8.32406 10.2398C8.28867 10.4941 8.22206 10.74 8.12423 10.9774C8.14505 10.927 8.16586 10.8766 8.18668 10.8261C8.11382 11.0006 8.02432 11.1708 7.92024 11.3284C7.89526 11.3662 7.8682 11.404 7.84114 11.4419C7.7787 11.5301 7.87861 11.4061 7.88069 11.3914C7.87861 11.404 7.84739 11.4335 7.83698 11.4461C7.77662 11.5217 7.71209 11.5932 7.6434 11.6604C7.57887 11.7256 7.51226 11.7886 7.44149 11.8475C7.42484 11.8622 7.40611 11.8769 7.38737 11.8916C7.33117 11.9378 7.51643 11.7949 7.43733 11.8517C7.39986 11.879 7.36239 11.9063 7.32493 11.9315C7.16465 12.0408 6.99396 12.1333 6.81703 12.2089C6.86699 12.1879 6.91695 12.1669 6.9669 12.1459C6.73169 12.2447 6.48815 12.3119 6.23629 12.3476C6.29249 12.3392 6.34661 12.3329 6.40281 12.3245C6.26959 12.3413 6.1343 12.3518 5.999 12.3518C5.6722 12.3539 5.35997 12.6397 5.37454 12.9823C5.38911 13.3227 5.6493 13.6148 5.999 13.6127C6.87948 13.6085 7.71417 13.2765 8.3761 12.6923C8.9839 12.1585 9.41061 11.3788 9.52718 10.5739C9.57089 10.2692 9.57714 9.97291 9.57714 9.66819C9.57714 9.29202 9.57714 8.91585 9.57714 8.53968C9.57714 7.48892 9.57714 6.44026 9.57714 5.38951C9.57714 4.79478 9.57922 4.20215 9.57714 3.60742C9.57297 2.73739 9.25866 1.92411 8.71122 1.25793C8.20125 0.640079 7.43941 0.190355 6.6526 0.0558579C5.79293 -0.0912482 4.9062 0.0495533 4.15477 0.509785C3.41583 0.963713 2.86214 1.67403 2.58946 2.50202C2.35633 3.21023 2.41669 3.992 2.41669 4.72753C2.41669 5.76568 2.41669 6.80383 2.41669 7.84198C2.41669 8.54598 2.41669 9.24999 2.41669 9.9519C2.41669 10.6013 2.57697 11.2443 2.90169 11.8075C3.33465 12.5557 4.02155 13.1126 4.82502 13.4068C5.19553 13.5434 5.60143 13.6085 5.99691 13.6085C6.32371 13.6085 6.63594 13.3185 6.62137 12.9781C6.60888 12.6418 6.34869 12.3518 5.999 12.3518Z" fill="#101828"/>
</g>
</g>
<g id="Group_6">
<g id="Group_7">
<path id="Vector_4" d="M5.16632 15.6869C5.16632 16.6978 5.16632 17.7107 5.16632 18.7215C5.16632 18.8665 5.16632 19.0115 5.16632 19.1586C5.16632 19.5979 5.54932 20.0203 5.99893 19.9993C6.45062 19.9782 6.83154 19.6294 6.83154 19.1586C6.83154 18.1478 6.83154 17.1349 6.83154 16.1241C6.83154 15.9791 6.83154 15.834 6.83154 15.6869C6.83154 15.2477 6.44854 14.8253 5.99893 14.8463C5.54724 14.8652 5.16632 15.2141 5.16632 15.6869Z" fill="#101828"/>
</g>
</g>
</g>
</svg>
