<svg width="58" height="58" viewBox="0 0 58 58" fill="none" xmlns="http://www.w3.org/2000/svg">
<path d="M26.2704 1.8089C26.0896 1.80853 25.9128 1.86227 25.7628 1.96318C25.6128 2.0641 25.4963 2.2076 25.4285 2.37521C25.3607 2.54282 25.3446 2.7269 25.3822 2.90375C25.4198 3.08061 25.5095 3.24217 25.6397 3.36765L27.8219 5.54628C15.3701 6.16615 5.43757 16.4448 5.43757 29.049C5.42648 33.7455 6.82848 38.3367 9.46131 42.2258C11.1554 44.734 13.3151 46.8937 15.8232 48.5877C17.0774 49.4342 18.4187 50.1646 19.8288 50.7609C19.9392 50.8128 20.0589 50.8419 20.1808 50.8465C20.3026 50.851 20.4242 50.8309 20.5381 50.7874C20.652 50.7438 20.756 50.6777 20.8438 50.5931C20.9316 50.5084 21.0013 50.4068 21.0489 50.2946C21.0965 50.1823 21.121 50.0615 21.1208 49.9395C21.1206 49.8176 21.0958 49.6969 21.0479 49.5848C21 49.4726 20.9299 49.3713 20.8419 49.2868C20.7539 49.2024 20.6497 49.1366 20.5357 49.0934C17.952 48.0005 15.6044 46.4174 13.6228 44.4317C11.5992 42.4145 9.99437 40.0172 8.90069 37.3775C7.80701 34.7379 7.24604 31.908 7.25007 29.0508C7.25007 17.4943 16.2401 8.08378 27.6081 7.36421L25.6397 9.3344C25.5555 9.41866 25.4888 9.51867 25.4433 9.62871C25.3978 9.73876 25.3745 9.85668 25.3746 9.97576C25.3746 10.0948 25.3982 10.2127 25.4438 10.3227C25.4895 10.4327 25.5563 10.5326 25.6406 10.6167C25.7249 10.7009 25.8249 10.7676 25.9349 10.8131C26.045 10.8586 26.1629 10.882 26.282 10.8819C26.401 10.8818 26.5189 10.8583 26.6289 10.8126C26.7389 10.767 26.8388 10.7001 26.9229 10.6158L30.5479 6.99084C30.6326 6.90662 30.6998 6.8065 30.7456 6.69624C30.7915 6.58597 30.8151 6.46773 30.8151 6.34831C30.8151 6.22889 30.7915 6.11065 30.7456 6.00038C30.6998 5.89011 30.6326 5.78999 30.5479 5.70578L26.9229 2.0844C26.8382 1.99702 26.7368 1.9276 26.6247 1.88027C26.5126 1.83293 26.3921 1.80866 26.2704 1.8089ZM37.7291 7.26453C37.525 7.28048 37.3324 7.36504 37.1825 7.50442C37.0327 7.64381 36.9344 7.82982 36.9037 8.03217C36.873 8.23453 36.9118 8.4413 37.0136 8.61885C37.1154 8.79639 37.2743 8.93424 37.4644 9.00996C40.0482 10.1027 42.3958 11.6858 44.3773 13.6717C46.3993 15.6893 48.0031 18.0862 49.0967 20.725C50.1903 23.3638 50.7521 26.1925 50.7501 29.049C50.7501 40.6345 41.7111 50.0595 30.296 50.7319L32.3604 48.6693C32.4913 48.5419 32.5806 48.3779 32.6166 48.1989C32.6527 48.0199 32.6338 47.8342 32.5625 47.666C32.4912 47.4979 32.3707 47.3553 32.2169 47.2568C32.0632 47.1583 31.8832 47.1086 31.7007 47.1142C31.4654 47.1204 31.2418 47.2179 31.0772 47.386L27.4522 51.011C27.3678 51.0952 27.3008 51.1952 27.2551 51.3053C27.2095 51.4154 27.1859 51.5334 27.1859 51.6526C27.1859 51.7719 27.2095 51.8899 27.2551 52C27.3008 52.1101 27.3678 52.2101 27.4522 52.2943L31.0772 55.9193C31.1613 56.0035 31.2612 56.0704 31.3712 56.116C31.4812 56.1617 31.5991 56.1852 31.7182 56.1853C31.8373 56.1854 31.9552 56.162 32.0652 56.1165C32.1753 56.071 32.2753 56.0043 32.3595 55.9202C32.4438 55.836 32.5107 55.7361 32.5563 55.6261C32.6019 55.5162 32.6255 55.3983 32.6256 55.2792C32.6257 55.1601 32.6023 55.0422 32.5568 54.9321C32.5113 54.8221 32.4446 54.7221 32.3604 54.6378L30.2688 52.548C42.6808 51.8828 52.5626 41.6223 52.5626 29.049C52.5729 24.3537 51.171 19.7638 48.5388 15.8757C45.9804 12.0882 42.3794 9.123 38.1713 7.33884C38.0608 7.29108 37.9419 7.26582 37.8215 7.26453C37.7913 7.26301 37.7593 7.26301 37.7291 7.26453ZM29.0001 14.5508C21.0033 14.5508 14.5001 21.0522 14.5001 29.0508C14.5001 37.0475 21.0033 43.5508 29.0001 43.5508C36.9968 43.5508 43.5001 37.0475 43.5001 29.0508C43.5001 21.0522 36.9968 14.5508 29.0001 14.5508ZM29.0001 16.3633C36.0181 16.3633 41.6876 22.031 41.6876 29.0508C41.6876 36.067 36.0181 41.7383 29.0001 41.7383C21.9821 41.7383 16.3126 36.067 16.3126 29.0508C16.3126 22.031 21.9821 16.3633 29.0001 16.3633ZM28.3584 19.9375V22.0364C27.7893 22.1071 27.2728 22.243 26.8124 22.4478C26.352 22.6508 25.9605 22.9118 25.6343 23.229C25.3132 23.5503 25.0604 23.9331 24.8911 24.3546C24.7181 24.8119 24.6321 25.2975 24.6374 25.7865C24.6374 26.352 24.7371 26.8504 24.9274 27.2836C25.1304 27.715 25.4131 28.0956 25.7829 28.4255C26.1599 28.7571 26.613 29.0453 27.1423 29.2955C27.6769 29.5347 28.2805 29.7486 28.9511 29.9353C29.4532 30.0984 29.8809 30.2742 30.2326 30.4518C30.5914 30.6295 30.8814 30.8216 31.0989 31.0318C31.3255 31.2421 31.4868 31.4668 31.5883 31.7079C31.688 31.949 31.7406 32.2154 31.7406 32.5018C31.7406 32.8461 31.6789 33.1543 31.5521 33.4352C31.4252 33.7089 31.2403 33.9427 30.9974 34.1403C30.7618 34.3306 30.4718 34.481 30.1184 34.5898C29.4202 34.7857 28.6829 34.7957 27.9796 34.6188C27.6625 34.5361 27.3669 34.3859 27.1133 34.1783C26.8397 33.9495 26.6247 33.6587 26.4861 33.3301C26.3266 32.973 26.2505 32.5253 26.2505 31.9834H24.0374C24.0374 32.703 24.1498 33.321 24.3764 33.8358C24.6029 34.3433 24.902 34.7692 25.279 35.1063C25.6651 35.4435 26.1055 35.7008 26.6003 35.8785C27.0951 36.0561 27.6044 36.1757 28.1319 36.2319V38.0625H29.8809V36.2319C30.5099 36.1685 31.0754 36.0416 31.5774 35.8513C32.0795 35.6592 32.5073 35.4036 32.8589 35.0846C33.2105 34.7674 33.4842 34.3922 33.6763 33.9608C33.8684 33.5204 33.9627 33.031 33.9627 32.4837C33.9627 31.9236 33.8721 31.4306 33.6872 31.0028C33.4995 30.5734 33.2205 30.1899 32.8698 29.8791C32.4716 29.5291 32.0223 29.2418 31.5376 29.0272C30.949 28.7564 30.3399 28.5328 29.716 28.3584C29.252 28.2152 28.7984 28.0402 28.3584 27.8346C28.0413 27.6796 27.7452 27.4847 27.4776 27.2546C27.2664 27.0711 27.0991 26.8426 26.9882 26.5858C26.8062 26.0219 26.8062 25.4151 26.9882 24.8512C27.0897 24.5793 27.2347 24.3437 27.4286 24.1534C27.641 23.95 27.8944 23.7943 28.1718 23.6967C28.4654 23.5879 28.8098 23.5335 29.2121 23.5335C29.5982 23.5335 29.9408 23.606 30.2434 23.7528C30.5443 23.8996 30.7963 24.1026 30.9974 24.3618C31.1968 24.6228 31.3491 24.9346 31.4506 25.2898C31.5593 25.6469 31.6137 26.0348 31.6137 26.4625H33.8141C33.8141 25.1702 33.4896 24.1552 32.8444 23.4103C32.2082 22.6599 31.3056 22.2068 30.1329 22.0473V19.9375H28.3584Z" fill="#224091"/>
</svg>
