<svg width="25" height="24" viewBox="0 0 25 24" fill="none" xmlns="http://www.w3.org/2000/svg">
<g id="offer">
<g id="Group">
<g id="Page-1_32_">
<g id="_x30_33---Discount-Tag">
<path id="Shape_176_" d="M5.60777 23.1539H18.9005C19.5123 23.1539 20.0083 22.6579 20.0083 22.0462V7.14391C20.0087 6.54093 19.7147 5.97577 19.2206 5.62999L12.8892 1.19942C12.5076 0.933525 12.0007 0.933525 11.619 1.19942L5.28761 5.63034C4.79372 5.97599 4.4997 6.54101 4.5 7.14386V22.0462C4.50004 22.658 4.99597 23.1539 5.60777 23.1539ZM5.2385 7.14391C5.23854 6.78255 5.41479 6.44396 5.71076 6.23669L12.0422 1.80578C12.1694 1.71659 12.3388 1.71659 12.466 1.80578L18.7975 6.23669C19.0934 6.44396 19.2697 6.78259 19.2697 7.14391V22.0462C19.2697 22.2501 19.1044 22.4154 18.9005 22.4154H5.60773C5.40379 22.4154 5.2385 22.2501 5.2385 22.0462V7.14391Z" fill="#7F56D9" stroke="#7F56D9"/>
<path id="Shape_175_" d="M12.2542 5.43021C12.866 5.43021 13.3619 4.93424 13.3619 4.32248C13.3619 3.71072 12.866 3.21475 12.2542 3.21475C11.6425 3.21475 11.1465 3.71072 11.1465 4.32248C11.1465 4.93424 11.6424 5.43021 12.2542 5.43021ZM12.2542 3.95325C12.4581 3.95325 12.6234 4.11859 12.6234 4.32248C12.6234 4.52642 12.4581 4.69171 12.2542 4.69171C12.0503 4.69171 11.885 4.52637 11.885 4.32248C11.8849 4.11859 12.0503 3.95325 12.2542 3.95325Z" fill="#7F56D9"/>
<path id="Shape_174_" d="M6.86103 15.7373C6.87466 15.9298 6.85146 16.1232 6.7927 16.307C6.65657 16.6713 6.66544 17.0738 6.81745 17.4318C7.05362 17.7459 7.40161 17.957 7.78931 18.0215C7.97382 18.0615 8.14915 18.1358 8.30627 18.2404C8.41124 18.3973 8.48554 18.5728 8.52522 18.7574C8.59017 19.1449 8.80154 19.4927 9.11565 19.7288C9.47367 19.8803 9.87604 19.8891 10.2404 19.7536C10.4242 19.6946 10.6176 19.6714 10.8101 19.6853C10.9747 19.768 11.1225 19.8807 11.2458 20.0176C11.4983 20.3246 11.8595 20.5222 12.2542 20.5692C12.6496 20.522 13.0114 20.3235 13.2637 20.0154C13.3871 19.8785 13.5348 19.7658 13.6994 19.683C13.8919 19.6698 14.0852 19.6929 14.2692 19.7514C14.6334 19.8875 15.036 19.8786 15.3939 19.7266C15.7075 19.491 15.9187 19.1438 15.9836 18.757C16.0236 18.5725 16.0979 18.3971 16.2026 18.24C16.3595 18.135 16.5349 18.0607 16.7195 18.0211C17.107 17.9561 17.4549 17.7447 17.691 17.4306C17.8428 17.0727 17.8516 16.6702 17.7157 16.3059C17.657 16.122 17.6338 15.9287 17.6474 15.7362C17.7302 15.5716 17.8429 15.4238 17.9797 15.3005C18.2868 15.048 18.4844 14.6868 18.5314 14.292C18.4841 13.8966 18.2857 13.5348 17.9775 13.2825C17.8407 13.1592 17.728 13.0114 17.6452 12.8468C17.6316 12.6543 17.6548 12.461 17.7135 12.2771C17.8497 11.9128 17.8408 11.5103 17.6888 11.1524C17.4532 10.8387 17.106 10.6276 16.7191 10.5627C16.5346 10.5226 16.3593 10.4484 16.2022 10.3437C16.0972 10.1868 16.0229 10.0114 15.9832 9.82677C15.9183 9.43923 15.7069 9.09142 15.3928 8.8553C15.0348 8.70367 14.6324 8.6948 14.2681 8.83054C14.0842 8.88926 13.8908 8.91241 13.6983 8.89887C13.5337 8.81609 13.3859 8.70342 13.2626 8.56655C13.0102 8.2595 12.6489 8.06188 12.2542 8.01489C11.8588 8.06214 11.497 8.26063 11.2447 8.56876C11.1213 8.70562 10.9736 8.8183 10.809 8.90108C10.6164 8.91492 10.4231 8.89173 10.2393 8.83275C9.875 8.69684 9.4725 8.70567 9.11452 8.8575C8.80089 9.09311 8.58978 9.44027 8.52483 9.82715C8.4848 10.0117 8.41055 10.187 8.30588 10.3441C8.14894 10.4491 7.97352 10.5234 7.78892 10.5631C7.40139 10.628 7.05358 10.8394 6.81745 11.1535C6.66566 11.5114 6.65679 11.9139 6.7927 12.2782C6.85146 12.4621 6.87466 12.6555 6.86103 12.848C6.77825 13.0126 6.66557 13.1603 6.52871 13.2837C6.22166 13.5361 6.02404 13.8974 5.97705 14.2921C6.0243 14.6875 6.22278 15.0493 6.53092 15.3016C6.667 15.4251 6.7789 15.5729 6.86103 15.7373ZM7.06855 13.788C7.29616 13.5832 7.46989 13.3255 7.57443 13.0377C7.62869 12.7282 7.60727 12.41 7.51203 12.1105C7.44453 11.9222 7.42562 11.7199 7.45704 11.5223C7.51723 11.4175 7.78676 11.3377 8.00316 11.2705C8.30765 11.2061 8.59151 11.0674 8.82954 10.8669C9.02988 10.6287 9.16848 10.3449 9.23313 10.0405C9.29885 9.82413 9.38081 9.55498 9.48457 9.4944C9.68219 9.46299 9.88452 9.48207 10.0728 9.54979C10.3722 9.64486 10.6901 9.66627 10.9996 9.61219C11.2876 9.50777 11.5454 9.334 11.7503 9.10631C11.9176 8.94902 12.1258 8.75331 12.2543 8.75331C12.3828 8.75331 12.591 8.94902 12.7583 9.10631C12.9631 9.33391 13.2208 9.50764 13.5086 9.61219C13.8182 9.66658 14.1363 9.6452 14.4358 9.54979C14.6241 9.48233 14.8264 9.46338 15.024 9.49479C15.1288 9.55498 15.2086 9.82452 15.2758 10.0409C15.3403 10.3454 15.4789 10.6293 15.6794 10.8673C15.9176 11.0676 16.2014 11.2062 16.5058 11.2709C16.7222 11.3366 16.9913 11.4186 17.0519 11.5223C17.0829 11.7199 17.0639 11.9222 16.9965 12.1105C16.9013 12.4099 16.8799 12.7279 16.9341 13.0374C17.0385 13.3253 17.2123 13.5831 17.44 13.788C17.5973 13.9553 17.793 14.1635 17.793 14.292C17.793 14.4206 17.5973 14.6288 17.44 14.7961C17.2124 15.0009 17.0387 15.2585 16.9341 15.5464C16.8799 15.8559 16.9013 16.174 16.9965 16.4735C17.064 16.6618 17.0829 16.8642 17.0515 17.0617C16.9913 17.1666 16.7218 17.2464 16.5054 17.3136C16.2009 17.378 15.9171 17.5167 15.679 17.7172C15.4787 17.9553 15.3401 18.2391 15.2754 18.5436C15.2097 18.76 15.1278 19.0291 15.024 19.0897C14.8264 19.1209 14.6241 19.1018 14.4358 19.0343C14.1365 18.9387 13.8184 18.9173 13.509 18.9719C13.221 19.0763 12.9632 19.2501 12.7583 19.4778C12.591 19.6351 12.3828 19.8308 12.2543 19.8308C12.1258 19.8308 11.9176 19.6351 11.7503 19.4778C11.5455 19.2502 11.2878 19.0764 11 18.9719C10.9059 18.9469 10.8089 18.9345 10.7116 18.935C10.4956 18.9434 10.2813 18.9762 10.0727 19.0328C9.88457 19.1009 9.6821 19.1198 9.48453 19.0878C9.37968 19.0276 9.29989 18.7581 9.23269 18.5417C9.16826 18.2372 9.02962 17.9533 8.82911 17.7153C8.59095 17.515 8.30713 17.3764 8.00272 17.3117C7.78633 17.246 7.51718 17.164 7.4566 17.0603C7.42558 16.8627 7.44462 16.6604 7.51199 16.4721C7.60723 16.1727 7.62865 15.8547 7.57439 15.5452C7.46998 15.2573 7.2962 14.9995 7.06851 14.7946C6.91122 14.6288 6.71551 14.4206 6.71551 14.292C6.71555 14.1636 6.91122 13.9553 7.06855 13.788Z" fill="#7F56D9" stroke="#7F56D9" stroke-width="0.5"/>
<path id="Shape_173_" d="M14.1004 13.5536C14.7122 13.5536 15.2081 13.0576 15.2081 12.4459C15.2081 11.8341 14.7122 11.3381 14.1004 11.3381C13.4886 11.3381 12.9927 11.8341 12.9927 12.4459C12.9927 13.0576 13.4886 13.5536 14.1004 13.5536ZM14.1004 12.0766C14.3043 12.0766 14.4696 12.2419 14.4696 12.4458C14.4696 12.6498 14.3043 12.815 14.1004 12.815C13.8965 12.815 13.7312 12.6497 13.7312 12.4458C13.7312 12.2419 13.8965 12.0766 14.1004 12.0766Z" fill="#7F56D9"/>
<path id="Shape_172_" d="M10.408 17.246C11.0198 17.246 11.5158 16.75 11.5158 16.1383C11.5158 15.5265 11.0198 15.0305 10.408 15.0305C9.79622 15.0305 9.30029 15.5265 9.30029 16.1383C9.30029 16.7501 9.79626 17.246 10.408 17.246ZM10.408 15.769C10.612 15.769 10.7773 15.9343 10.7773 16.1383C10.7773 16.3422 10.6119 16.5075 10.408 16.5075C10.2041 16.5075 10.0388 16.3422 10.0388 16.1383C10.0388 15.9343 10.2041 15.769 10.408 15.769Z" fill="#7F56D9"/>
<path id="Shape_171_" d="M14.5778 17.1378C14.7226 17.2778 14.953 17.2758 15.0954 17.1333C15.2378 16.9909 15.2398 16.7606 15.0999 16.6157L9.93045 11.4463C9.78558 11.3064 9.55525 11.3084 9.41285 11.4508C9.2704 11.5933 9.26841 11.8235 9.40835 11.9684L14.5778 17.1378Z" fill="#7F56D9"/>
</g>
</g>
</g>
</g>
</svg>
