<svg width="36" height="36" viewBox="0 0 36 36" fill="none" xmlns="http://www.w3.org/2000/svg">
<path d="M21.375 21.375C17.0325 21.375 13.5 17.8414 13.5 13.5C13.5 9.15863 17.0325 5.625 21.375 5.625C22.896 5.625 24.3709 6.05925 25.641 6.87937C25.902 7.04812 25.9763 7.39575 25.8075 7.65675C25.6388 7.91663 25.2911 7.99425 25.0301 7.82325C23.9434 7.12125 22.6789 6.75 21.375 6.75C17.6524 6.75 14.625 9.77738 14.625 13.5C14.625 17.2226 17.6524 20.25 21.375 20.25C25.0976 20.25 28.125 17.2226 28.125 13.5C28.125 12.7778 28.0114 12.0679 27.7886 11.3884C27.6919 11.0925 27.8528 10.7752 28.1475 10.6785C28.4423 10.5784 28.7606 10.7438 28.8574 11.0363C29.1172 11.8305 29.25 12.6585 29.25 13.5C29.25 17.8414 25.7175 21.375 21.375 21.375Z" fill="#224091"/>
<path d="M20.8127 16.5365C20.8082 16.5365 20.8037 16.5365 20.7992 16.5365C20.6361 16.532 20.4842 16.4589 20.3796 16.334L17.5671 12.959C17.3691 12.7194 17.4017 12.365 17.6391 12.1659C17.8787 11.9679 18.232 12.0005 18.4322 12.2379L20.8319 15.119L27.8237 7.39592C28.0352 7.16642 28.3907 7.15292 28.618 7.36104C28.8464 7.57142 28.8621 7.92692 28.6517 8.15642L21.2267 16.3543C21.1199 16.4713 20.9714 16.5365 20.8127 16.5365Z" fill="#224091"/>
<path d="M24.75 32.625C24.75 33.867 25.7591 34.875 27 34.875C28.2409 34.875 29.25 33.867 29.25 32.625C29.25 31.383 28.2409 30.375 27 30.375C25.7591 30.375 24.75 31.383 24.75 32.625ZM27 31.5C27.621 31.5 28.125 32.0051 28.125 32.625C28.125 33.2449 27.621 33.75 27 33.75C26.379 33.75 25.875 33.2449 25.875 32.625C25.875 32.0051 26.379 31.5 27 31.5Z" fill="#224091"/>
<path d="M9.5625 23.625H1.6875C1.377 23.625 1.125 23.373 1.125 23.0625C1.125 22.752 1.377 22.5 1.6875 22.5H9.5625C9.873 22.5 10.125 22.752 10.125 23.0625C10.125 23.373 9.873 23.625 9.5625 23.625Z" fill="#224091"/>
<path d="M7.3125 27H2.8125C2.502 27 2.25 26.748 2.25 26.4375C2.25 26.127 2.502 25.875 2.8125 25.875H7.3125C7.623 25.875 7.875 26.127 7.875 26.4375C7.875 26.748 7.623 27 7.3125 27Z" fill="#224091"/>
<path d="M7.3125 19.125H3.9375C3.627 19.125 3.375 18.873 3.375 18.5625C3.375 18.252 3.627 18 3.9375 18H7.3125C7.623 18 7.875 18.252 7.875 18.5625C7.875 18.873 7.623 19.125 7.3125 19.125Z" fill="#224091"/>
<path d="M34.344 11.79C34.083 11.4469 33.6611 11.25 33.1875 11.25H30.9375C30.627 11.25 30.375 11.502 30.375 11.8125C30.375 12.123 30.627 12.375 30.9375 12.375H33.1875C33.309 12.375 33.4012 12.4099 33.4496 12.4718C33.4969 12.5348 33.5047 12.6326 33.4732 12.7507L30.6911 22.9523C30.591 23.3167 30.1567 23.67 29.781 23.6914L29.25 23.724L14.0254 24.6184C13.8004 24.6319 13.5844 24.6803 13.3751 24.7421L8.91675 3.92513C8.8515 3.6225 8.5455 3.375 8.23612 3.375H3.9375C3.627 3.375 3.375 3.627 3.375 3.9375C3.375 4.24687 3.627 4.5 3.9375 4.5H7.88963L12.3435 25.3013C11.4683 26.028 10.9924 27.2272 11.3951 28.458C11.781 29.6325 12.951 30.375 14.1874 30.375H30.375C30.6855 30.375 30.9375 30.123 30.9375 29.8125C30.9375 29.502 30.6855 29.25 30.375 29.25H14.0625C13.1321 29.25 12.375 28.4929 12.375 27.5625C12.375 26.6141 13.1456 25.7985 14.0906 25.7411L29.8474 24.8153C30.7013 24.7658 31.5495 24.0784 31.7768 23.2493L34.5589 13.0477C34.6838 12.5899 34.6061 12.1331 34.344 11.79Z" fill="#224091"/>
<path d="M15.75 34.875C15.4395 34.875 15.1875 34.623 15.1875 34.3125C15.1875 34.002 15.4395 33.75 15.75 33.75C16.3699 33.75 16.875 33.246 16.875 32.625C16.875 32.004 16.3699 31.5 15.75 31.5C15.1301 31.5 14.625 32.004 14.625 32.625C14.625 32.9355 14.373 33.1875 14.0625 33.1875C13.752 33.1875 13.5 32.9355 13.5 32.625C13.5 31.3841 14.5091 30.375 15.75 30.375C16.9909 30.375 18 31.3841 18 32.625C18 33.8659 16.9909 34.875 15.75 34.875Z" fill="#224091"/>
<path d="M15.75 34.875H7.3125C7.002 34.875 6.75 34.623 6.75 34.3125C6.75 34.002 7.002 33.75 7.3125 33.75H15.75C16.0605 33.75 16.3125 34.002 16.3125 34.3125C16.3125 34.623 16.0605 34.875 15.75 34.875Z" fill="#224091"/>
<path d="M5.0625 34.875C5.37316 34.875 5.625 34.6232 5.625 34.3125C5.625 34.0018 5.37316 33.75 5.0625 33.75C4.75184 33.75 4.5 34.0018 4.5 34.3125C4.5 34.6232 4.75184 34.875 5.0625 34.875Z" fill="#224091"/>
</svg>
