<svg width="16" height="16" viewBox="0 0 16 16" fill="none" xmlns="http://www.w3.org/2000/svg">
<path d="M7.71951 8.03735C9.47872 8.03735 10.9048 6.61123 10.9048 4.85202C10.9048 3.09281 9.47872 1.66669 7.71951 1.66669C5.9603 1.66669 4.53418 3.09281 4.53418 4.85202C4.53418 6.61123 5.9603 8.03735 7.71951 8.03735Z" stroke="#808080" stroke-linecap="round" stroke-linejoin="round"/>
<path fill-rule="evenodd" clip-rule="evenodd" d="M2.667 12.4676C2.66616 12.2437 2.71624 12.0225 2.81347 11.8207C3.11858 11.2105 3.97899 10.8871 4.69295 10.7407C5.20785 10.6308 5.72987 10.5574 6.25511 10.521C7.22756 10.4356 8.20563 10.4356 9.17807 10.521C9.70327 10.5578 10.2253 10.6312 10.7402 10.7407C11.4542 10.8871 12.3146 11.18 12.6197 11.8207C12.8153 12.2319 12.8153 12.7093 12.6197 13.1205C12.3146 13.7613 11.4542 14.0542 10.7402 14.1945C10.2259 14.3089 9.70373 14.3844 9.17807 14.4203C8.38658 14.4874 7.59139 14.4996 6.79821 14.4569C6.61515 14.4569 6.43818 14.4569 6.25511 14.4203C5.73142 14.3849 5.21122 14.3094 4.69905 14.1945C3.97899 14.0542 3.12468 13.7613 2.81347 13.1205C2.71673 12.9165 2.6667 12.6934 2.667 12.4676Z" stroke="#808080" stroke-linecap="round" stroke-linejoin="round"/>
</svg>
