<svg width="20" height="20" viewBox="0 0 20 20" fill="none" xmlns="http://www.w3.org/2000/svg">
<path fill-rule="evenodd" clip-rule="evenodd" d="M17.2727 8.4H4.18198C3.78053 8.4 3.45471 8.0416 3.45471 7.6C3.45471 6.9016 3.45471 6 3.45471 6C3.45471 5.3632 3.68455 4.7528 4.094 4.3032C4.50272 3.8528 5.0576 3.6 5.63651 3.6H7.09103V2.4C7.09103 2.2936 7.12958 2.192 7.19721 2.1168C7.26558 2.0424 7.35794 2 7.45467 2C7.55139 2 7.64376 2.0424 7.71212 2.1168C7.77976 2.192 7.8183 2.2936 7.8183 2.4V3.6H13.6364V2.4C13.6364 2.2936 13.675 2.192 13.7426 2.1168C13.811 2.0424 13.9033 2 14 2C14.0968 2 14.1891 2.0424 14.2575 2.1168C14.3251 2.192 14.3637 2.2936 14.3637 2.4V3.6H15.8182C16.3971 3.6 16.952 3.8528 17.3607 4.3032C17.7702 4.7528 18 5.3632 18 6V15.6C18 16.2368 17.7702 16.8472 17.3607 17.2968C16.952 17.7472 16.3971 18 15.8182 18C13.5993 18 6.26051 18 4.54343 18C4.44744 18 4.35579 17.9584 4.28816 17.8832C4.21979 17.8088 4.18198 17.708 4.18198 17.6024V17.6C4.18198 17.4936 4.22052 17.392 4.28816 17.3168C4.35652 17.2424 4.44888 17.2 4.54561 17.2C6.51504 17.2 15.8182 17.2 15.8182 17.2C16.2037 17.2 16.5738 17.0312 16.8466 16.7312C17.1193 16.4312 17.2727 16.024 17.2727 15.6V8.4ZM3.2416 14.8L4.0758 15.7168C4.21762 15.8728 4.21762 16.1264 4.0758 16.2824C3.93326 16.4392 3.70343 16.4392 3.56089 16.2824L2.10636 14.6824C1.96455 14.5264 1.96455 14.2736 2.10636 14.1168L3.56089 12.5168C3.70343 12.3608 3.93326 12.3608 4.0758 12.5168C4.21762 12.6728 4.21762 12.9264 4.0758 13.0824L3.2416 14H8.9092C9.10992 14 9.27283 14.1792 9.27283 14.4C9.27283 14.6208 9.10992 14.8 8.9092 14.8H3.2416ZM8.03141 10.8H2.36382C2.16309 10.8 2.00018 10.9792 2.00018 11.2C2.00018 11.4208 2.16309 11.6 2.36382 11.6H8.03141L7.19721 12.5168C7.0554 12.6728 7.0554 12.9264 7.19721 13.0824C7.33903 13.2392 7.56959 13.2392 7.71141 13.0824L9.16594 11.4824C9.30848 11.3264 9.30848 11.0736 9.16594 10.9168L7.71141 9.3168C7.56959 9.1608 7.33903 9.1608 7.19721 9.3168C7.0554 9.4728 7.0554 9.7264 7.19721 9.8824L8.03141 10.8ZM7.09103 4.4H5.63651C5.25106 4.4 4.88088 4.5688 4.60815 4.8688C4.33543 5.1688 4.18198 5.576 4.18198 6V7.6H17.2727V6C17.2727 5.576 17.1193 5.1688 16.8466 4.8688C16.5738 4.5688 16.2037 4.4 15.8182 4.4H14.3637V5.6C14.3637 5.7064 14.3251 5.808 14.2575 5.8832C14.1891 5.9576 14.0968 6 14 6C13.9033 6 13.811 5.9576 13.7426 5.8832C13.675 5.808 13.6364 5.7064 13.6364 5.6V4.4H7.8183V5.6C7.8183 5.7064 7.77976 5.808 7.71212 5.8832C7.64376 5.9576 7.55139 6 7.45467 6C7.35794 6 7.26558 5.9576 7.19721 5.8832C7.12958 5.808 7.09103 5.7064 7.09103 5.6V4.4Z" fill="#455A64"/>
</svg>
