<svg width="28" height="28" viewBox="0 0 28 28" fill="none" xmlns="http://www.w3.org/2000/svg">
<path d="M5.4502 10.8281H10.9021C10.9891 10.8281 11.0726 10.7936 11.1341 10.732C11.1957 10.6705 11.2302 10.587 11.2302 10.5C11.2302 10.413 11.1957 10.3295 11.1341 10.268C11.0726 10.2064 10.9891 10.1719 10.9021 10.1719H5.4502C5.36317 10.1719 5.27971 10.2064 5.21818 10.268C5.15664 10.3295 5.12207 10.413 5.12207 10.5C5.12207 10.587 5.15664 10.6705 5.21818 10.732C5.27971 10.7936 5.36317 10.8281 5.4502 10.8281ZM16.0747 13.7812H5.4502C5.36317 13.7812 5.27971 13.8158 5.21818 13.8774C5.15664 13.9389 5.12207 14.0224 5.12207 14.1094C5.12207 14.1964 5.15664 14.2799 5.21818 14.3414C5.27971 14.4029 5.36317 14.4375 5.4502 14.4375H16.0747C16.1617 14.4375 16.2451 14.4029 16.3067 14.3414C16.3682 14.2799 16.4028 14.1964 16.4028 14.1094C16.4028 14.0224 16.3682 13.9389 16.3067 13.8774C16.2451 13.8158 16.1617 13.7812 16.0747 13.7812ZM16.0747 17.3906H5.4502C5.36317 17.3906 5.27971 17.4252 5.21818 17.4867C5.15664 17.5483 5.12207 17.6317 5.12207 17.7188C5.12207 17.8058 5.15664 17.8892 5.21818 17.9508C5.27971 18.0123 5.36317 18.0469 5.4502 18.0469H16.0747C16.1617 18.0469 16.2451 18.0123 16.3067 17.9508C16.3682 17.8892 16.4028 17.8058 16.4028 17.7188C16.4028 17.6317 16.3682 17.5483 16.3067 17.4867C16.2451 17.4252 16.1617 17.3906 16.0747 17.3906Z" fill="white"/>
<path d="M21.2547 1.03174C19.8856 1.0308 18.5587 1.5055 17.5008 2.37466C16.443 3.24383 15.7199 4.45347 15.4553 5.79677H1.15938C0.978195 5.79677 0.820312 5.92255 0.820312 6.10368V26.0381C0.822242 26.1609 0.859329 26.2805 0.927178 26.3828C0.995026 26.4852 1.09079 26.5659 1.20313 26.6155C1.32418 26.6723 1.45883 26.6937 1.59154 26.6773C1.72425 26.6608 1.84959 26.6072 1.95311 26.5225L4.27405 24.5874C4.28204 24.5807 4.29195 24.5768 4.30233 24.5762C4.31271 24.5756 4.32301 24.5783 4.33174 24.5839L7.11337 26.8289C7.23862 26.927 7.39339 26.9799 7.5525 26.9789C7.71162 26.9779 7.86572 26.9231 7.98974 26.8234L10.7321 24.5858C10.74 24.5793 10.7497 24.5754 10.76 24.5749C10.7702 24.5743 10.7803 24.5771 10.7889 24.5827L13.5389 26.8265C13.6629 26.9251 13.8167 26.9788 13.9752 26.9788C14.1348 26.9785 14.2898 26.9246 14.4151 26.8257L17.1887 24.5867C17.1966 24.5802 17.2064 24.5764 17.2166 24.5759C17.2269 24.5754 17.237 24.5782 17.2455 24.5839L19.5693 26.5223C19.6702 26.6068 19.7932 26.6605 19.9238 26.677C20.0544 26.6935 20.1869 26.6721 20.3056 26.6153C20.4161 26.5648 20.5095 26.4834 20.5745 26.3809C20.6396 26.2784 20.6734 26.1593 20.672 26.0379V12.8221C20.8908 12.8396 21.0549 12.8489 21.2441 12.8489C24.505 12.8489 27.1634 10.2013 27.1634 6.94034C27.1626 5.37352 26.5398 3.8711 25.4319 2.7632C24.324 1.6553 22.8216 1.03254 21.2547 1.03174ZM20.0156 26.0215C20.0156 26.0264 19.9938 26.0307 19.9789 26.0183L17.6564 24.0766C17.5324 23.9756 17.3775 23.9202 17.2176 23.9196C17.0577 23.9189 16.9024 23.9731 16.7776 24.0731L14.0055 26.312C13.9977 26.3185 13.988 26.3222 13.9779 26.3228C13.9678 26.3233 13.9578 26.3206 13.9494 26.3149L11.1996 24.0711C11.0745 23.9719 10.9194 23.9182 10.7597 23.9187C10.6001 23.9193 10.4453 23.9741 10.321 24.0743L7.57887 26.3118C7.57097 26.3183 7.56118 26.3222 7.55095 26.3227C7.54072 26.3233 7.53057 26.3206 7.52199 26.315L4.74081 24.0701C4.61474 23.9709 4.45857 23.9178 4.29821 23.9196C4.13784 23.9214 3.9829 23.978 3.85908 24.0799L1.52977 26.0183C1.51468 26.0308 1.47656 26.0265 1.47656 26.0215V6.45302H15.3625C15.3484 6.61708 15.3301 6.77611 15.3301 6.94565C15.3296 8.30002 15.795 9.61334 16.6482 10.6652C17.5013 11.7171 18.6903 12.4436 20.0156 12.7227V26.0215ZM21.2547 12.1927C20.2149 12.1927 19.1984 11.8843 18.3338 11.3066C17.4691 10.7289 16.7953 9.90773 16.3973 8.94702C15.9994 7.9863 15.8953 6.92917 16.0982 5.90929C16.301 4.8894 16.8018 3.95258 17.5371 3.21729C18.2724 2.482 19.2092 1.98126 20.2291 1.7784C21.249 1.57554 22.3061 1.67966 23.2668 2.0776C24.2275 2.47554 25.0487 3.14943 25.6264 4.01404C26.2041 4.87866 26.5124 5.89517 26.5124 6.93504C26.5109 8.32898 25.9564 9.66539 24.9708 10.6511C23.9851 11.6367 22.6487 12.1911 21.2547 12.1927Z" fill="white"/>
<path d="M21.2548 4.55503C21.5514 4.55536 21.8357 4.67331 22.0453 4.88299C22.255 5.09267 22.373 5.37697 22.3733 5.6735C22.3733 5.76052 22.4079 5.84398 22.4694 5.90552C22.5309 5.96705 22.6144 6.00163 22.7014 6.00163C22.7884 6.00163 22.8719 5.96705 22.9334 5.90552C22.995 5.84398 23.0295 5.76052 23.0295 5.6735C23.029 5.26316 22.8865 4.86563 22.6263 4.5484C22.366 4.23116 22.004 4.01375 21.6017 3.93307V3.5C21.6017 3.41298 21.5671 3.32952 21.5055 3.26798C21.444 3.20645 21.3606 3.17188 21.2735 3.17188C21.1865 3.17188 21.103 3.20645 21.0415 3.26798C20.98 3.32952 20.9454 3.41298 20.9454 3.5V3.92656C20.5084 4.00386 20.1162 4.24211 19.8462 4.59433C19.5762 4.94654 19.448 5.38714 19.4868 5.82924C19.5256 6.27134 19.7287 6.68283 20.056 6.98257C20.3833 7.28231 20.811 7.44852 21.2548 7.44844C21.476 7.44843 21.6923 7.51402 21.8762 7.63691C22.0602 7.75981 22.2035 7.93449 22.2882 8.13886C22.3729 8.34324 22.395 8.56813 22.3519 8.7851C22.3087 9.00206 22.2022 9.20136 22.0458 9.35778C21.8893 9.51421 21.69 9.62073 21.4731 9.66389C21.2561 9.70704 21.0312 9.68489 20.8268 9.60023C20.6225 9.51557 20.4478 9.3722 20.3249 9.18826C20.202 9.00432 20.1364 8.78807 20.1364 8.56685C20.1364 8.47983 20.1018 8.39637 20.0403 8.33483C19.9788 8.2733 19.8953 8.23873 19.8083 8.23873C19.7213 8.23873 19.6378 8.2733 19.5763 8.33483C19.5147 8.39637 19.4802 8.47983 19.4802 8.56685C19.4807 8.94512 19.6018 9.31337 19.826 9.61806C20.0502 9.92275 20.3657 10.148 20.7267 10.2611V10.8828C20.7267 10.9698 20.7612 11.0533 20.8228 11.1148C20.8843 11.1764 20.9678 11.2109 21.0548 11.2109C21.1418 11.2109 21.2253 11.1764 21.2868 11.1148C21.3483 11.0533 21.3829 10.9698 21.3829 10.8828V10.3359C21.8412 10.3027 22.2687 10.093 22.5755 9.75097C22.8823 9.40893 23.0444 8.96123 23.0278 8.50206C23.0112 8.04289 22.8172 7.60806 22.4865 7.28906C22.1558 6.97006 21.7143 6.79177 21.2548 6.7917C20.9609 6.78758 20.6805 6.66795 20.4741 6.45866C20.2677 6.24938 20.152 5.96726 20.152 5.67334C20.152 5.37941 20.2677 5.09729 20.4741 4.88801C20.6805 4.67872 20.9609 4.55914 21.2548 4.55503Z" fill="white"/>
</svg>
