<svg width="36" height="36" viewBox="0 0 36 36" fill="none" xmlns="http://www.w3.org/2000/svg">
<g clip-path="url(#clip0_8527_5989)">
<path d="M0 35.4141H1.125" stroke="#224091" stroke-miterlimit="10"/>
<path d="M2.17969 35.4141H36" stroke="#224091" stroke-miterlimit="10"/>
<path d="M25.9141 16.8896V35.4144" stroke="#224091" stroke-miterlimit="10"/>
<path d="M32.2388 35.414V10.042H25.9141V15.8345" stroke="#224091" stroke-miterlimit="10"/>
<path d="M21.1607 35.4146V19.5303H14.8359V35.4146" stroke="#224091" stroke-miterlimit="10"/>
<path d="M10.0904 28.4911V23.751H3.76562V35.4143" stroke="#224091" stroke-miterlimit="10"/>
<path d="M10.0898 35.4147V29.583" stroke="#224091" stroke-miterlimit="10"/>
<path d="M1.125 20.4578C4.84847 19.7191 11.6006 17.8814 18.572 12.8625C23.9829 8.96701 27.6273 4.52206 29.9953 0.898438" stroke="#224091" stroke-miterlimit="10"/>
<path d="M25.6367 1.4377L30.2513 0.665039L31.0239 5.27958" stroke="#224091" stroke-miterlimit="10"/>
<path d="M5.875 25.3271V26.3818" stroke="#224091" stroke-miterlimit="10"/>
<path d="M16.9453 21.1084V22.1631" stroke="#224091" stroke-miterlimit="10"/>
<path d="M28.0391 11.6162V12.6709" stroke="#224091" stroke-miterlimit="10"/>
</g>
<defs>
<clipPath id="clip0_8527_5989">
<rect width="36" height="36" fill="white"/>
</clipPath>
</defs>
</svg>
