<svg width="20" height="20" viewBox="0 0 20 20" fill="none" xmlns="http://www.w3.org/2000/svg">
<path fill-rule="evenodd" clip-rule="evenodd" d="M14.8681 4.66563L13.0979 6.4314C13.0354 6.49365 13.0002 6.5782 13 6.66645C12.9999 6.71015 13.0084 6.75344 13.025 6.79385C13.0416 6.83426 13.066 6.871 13.0967 6.90198C13.1275 6.93295 13.1641 6.95755 13.2044 6.97437C13.2446 6.99118 13.2878 6.99989 13.3314 7C13.4195 7.00021 13.5041 6.96535 13.5666 6.9031L15.3305 5.14357V6.44887C15.3305 6.53713 15.3656 6.62179 15.4279 6.6842C15.4902 6.74662 15.5747 6.78168 15.6628 6.78168C15.751 6.78168 15.8355 6.74662 15.8978 6.6842C15.9601 6.62179 15.9951 6.53713 15.9951 6.44887V4.39433C16.0043 4.34121 16.0005 4.28665 15.9839 4.23534C15.9674 4.18404 15.9387 4.13753 15.9002 4.09983C15.8692 4.06816 15.8323 4.04301 15.7915 4.02587C15.7507 4.00872 15.7069 3.99993 15.6627 4H13.5504C13.4623 4 13.3777 4.03506 13.3154 4.09748C13.2531 4.15989 13.2181 4.24455 13.2181 4.33281C13.2181 4.42108 13.2531 4.50573 13.3154 4.56815C13.3777 4.63056 13.4623 4.66563 13.5504 4.66563H14.8681Z" fill="#455A64"/>
<path fill-rule="evenodd" clip-rule="evenodd" d="M5.66675 4.66675C5.40153 4.66675 5.14718 4.77211 4.95964 4.95964C4.77211 5.14718 4.66675 5.40153 4.66675 5.66675V14.3333C4.66675 14.5985 4.77211 14.8528 4.95964 15.0404C5.14718 15.2279 5.40153 15.3333 5.66675 15.3333H14.3333C14.5985 15.3333 14.8528 15.2279 15.0404 15.0404C15.2279 14.8528 15.3333 14.5985 15.3333 14.3333V8.66675C15.3333 8.57833 15.3684 8.49354 15.4309 8.43102C15.4934 8.3685 15.5782 8.33337 15.6666 8.33337C15.755 8.33337 15.8398 8.3685 15.9024 8.43102C15.9649 8.49354 16 8.57833 16 8.66675V14.3333C16 14.5521 15.9569 14.7689 15.8731 14.9711C15.7894 15.1733 15.6666 15.357 15.5118 15.5118C15.357 15.6666 15.1733 15.7894 14.9711 15.8731C14.7689 15.9569 14.5521 16 14.3333 16H5.66675C5.2247 16 4.80076 15.8244 4.48818 15.5118C4.1756 15.1992 4 14.7753 4 14.3333V5.66675C4 5.2247 4.1756 4.80076 4.48818 4.48818C4.80076 4.1756 5.2247 4 5.66675 4H11.3332C11.4217 4 11.5065 4.03512 11.569 4.09764C11.6315 4.16016 11.6666 4.24496 11.6666 4.33337C11.6666 4.42179 11.6315 4.50659 11.569 4.56911C11.5065 4.63163 11.4217 4.66675 11.3332 4.66675H5.66675Z" fill="#455A64"/>
<path d="M12 8.28585C12 8.12863 11.8515 8 11.67 8H8.33022C8.14871 8 8.00021 8.12863 8.00021 8.28585C8.00021 8.44306 8.14871 8.5717 8.33022 8.5717H9.28727C9.76579 8.57455 10.1882 8.83753 10.34 9.22915H8.33022C8.14871 9.22915 8.00021 9.35778 8.00021 9.51499C8.00021 9.67221 8.14871 9.80084 8.33022 9.80084H10.34C10.2872 9.94948 10.1915 10.0867 10.0661 10.1982C9.8615 10.3811 9.58098 10.484 9.28727 10.4869H8.33022C8.15531 10.4812 8.00681 10.6012 8.00021 10.7527C7.99691 10.8328 8.03321 10.9128 8.10251 10.9671L10.4918 12.9223C10.6238 13.0309 10.835 13.0252 10.9571 12.908C11.0793 12.7994 11.076 12.625 10.9505 12.5193C10.9472 12.5164 10.9439 12.5164 10.9439 12.5135L9.15856 11.0586H9.28397C9.75259 11.0557 10.2014 10.8928 10.5314 10.6041C10.7855 10.3868 10.9571 10.1067 11.0166 9.80084H11.67C11.8515 9.80084 12 9.67221 12 9.51499C12 9.35778 11.8515 9.22915 11.67 9.22915H11.0166C10.9704 8.98617 10.8449 8.7575 10.6568 8.5717H11.6667C11.8515 8.5717 12 8.44306 12 8.28585Z" fill="#455A64"/>
</svg>
