<svg xmlns="http://www.w3.org/2000/svg" shape-rendering="geometricPrecision" text-rendering="geometricPrecision" image-rendering="optimizeQuality" fill-rule="evenodd" clip-rule="evenodd" viewBox="0 0 305 512.302"><path d="M245.291 218.168c5.329 0 9.812-4.325 9.812-9.805 0-5.329-4.338-9.799-9.812-9.799h-105.82c-5.524 0-9.805 4.47-9.805 9.799 0 5.518 4.477 9.805 9.805 9.805h105.82zM88.616 320.437c6.541 0 11.933 4.351 11.933 11.146v73.349h7.22v-34.966c0-14.124 22.291-13.692 22.291.787v34.96l.356-.12h7.811v-27.778c0-14.123 22.297-13.692 22.297.788v25.808l.089.026 7.76-.038v-19.674c0-14.124 22.291-13.699 22.291.787 0 16.29.933 35.525.336 51.815-.66 17.864-4.324 37.97-17.292 49.248-16.448 13.343-32.89 16.861-49.948 14.175-30.679-4.833-38.459-23.662-53.04-46.785l-37.056-58.768c-2.279-5.36-1.974-8.986.312-11.304 9.85-6.395 25.878 7.182 43.647 26.374l.629-.146v-79.319c0-5.703 4.661-10.365 10.364-10.365zM57.848 0h189.31c15.959 0 30.521 6.509 40.898 16.969C298.579 27.504 305 41.99 305 57.867v396.581c0 15.972-6.497 30.533-16.944 40.898-10.548 10.548-25.021 16.956-40.898 16.956h-90.413c8.472-2.82 16.842-7.361 25.123-13.934l1.257-.978c8.523-7.417 13.959-17.299 17.331-28.095l.242-.73c2.991-9.894 4.229-20.658 4.598-30.737.069-1.924.12-3.892.152-5.887h81.046V57.314H18.423v326.045a22.887 22.887 0 00-.609 4.484c-.083 2.089.107 4.286.609 6.579v37.519h21.503l18.69 29.645 4.795 7.792c12.009 19.712 21.744 35.678 46.499 42.924H57.848c-15.966 0-30.528-6.497-40.898-16.956C6.414 484.822 0 470.343 0 454.448V57.784c0-15.966 6.497-30.527 16.95-40.905C27.473 6.35 41.882 0 57.848 0zm-4.211 272.116h48.576a6.675 6.675 0 016.668 6.668v36.402a24.68 24.68 0 00-1.918-1.994c-3.201-2.998-7.125-5.125-11.418-6.236v-21.504h-35.24v34.363h6.173a24.548 24.548 0 00-2.578 10.987v2.349H53.637a6.675 6.675 0 01-6.668-6.668v-47.699a6.675 6.675 0 016.668-6.668zm191.654 40.32c5.329 0 9.812-4.325 9.812-9.805 0-5.328-4.338-9.799-9.812-9.799h-105.82c-5.524 0-9.805 4.471-9.805 9.799 0 5.518 4.477 9.805 9.805 9.805h105.82zM49.433 123.925c-3.245-3.842-2.769-9.602 1.073-12.847 3.842-3.245 9.602-2.769 12.847 1.073l8.142 9.634 20.83-26.082c3.131-3.937 8.878-4.591 12.815-1.461 3.938 3.131 4.592 8.878 1.461 12.816l-27.765 34.763-1.251 1.283c-3.842 3.245-9.602 2.769-12.847-1.073l-15.305-18.106zm195.858 4.249c5.329 0 9.812-4.325 9.812-9.805 0-5.329-4.338-9.8-9.812-9.8h-105.82c-5.524 0-9.805 4.471-9.805 9.8 0 5.518 4.477 9.805 9.805 9.805h105.82zM53.637 177.848h48.576a6.675 6.675 0 016.668 6.668v47.699a6.676 6.676 0 01-6.668 6.669H53.637a6.676 6.676 0 01-6.668-6.669v-47.699a6.675 6.675 0 016.668-6.668zm41.908 13.336h-35.24v34.363h35.24v-34.363z"/></svg>