<svg width="24" height="24" viewBox="0 0 24 24" fill="none" xmlns="http://www.w3.org/2000/svg">
<mask id="mask0_5568_1454" style="mask-type:alpha" maskUnits="userSpaceOnUse" x="0" y="0" width="24" height="24">
<rect width="24" height="24" fill="#D9D9D9"/>
</mask>
<g mask="url(#mask0_5568_1454)">
<path d="M12 15.6156C11.7872 15.6156 11.609 15.5438 11.4654 15.4002C11.3218 15.2566 11.25 15.0784 11.25 14.8656V7.21558L9.32692 9.13865C9.17821 9.28737 9.00417 9.36333 8.8048 9.36653C8.60545 9.36973 8.42308 9.28863 8.2577 9.12325C8.10258 8.96813 8.02759 8.78993 8.03272 8.58865C8.03784 8.38738 8.11283 8.21432 8.2577 8.06945L11.3673 4.95985C11.4609 4.86627 11.5596 4.80024 11.6634 4.76178C11.7673 4.72333 11.8795 4.7041 12 4.7041C12.1205 4.7041 12.2327 4.72333 12.3365 4.76178C12.4403 4.80024 12.5391 4.86627 12.6327 4.95985L15.7422 8.06945C15.891 8.21815 15.9644 8.39474 15.9624 8.59923C15.9605 8.80371 15.8871 8.97838 15.7422 9.12325C15.5871 9.27838 15.4089 9.35852 15.2077 9.36365C15.0064 9.36877 14.8282 9.29377 14.673 9.13865L12.7499 7.21558V14.8656C12.7499 15.0784 12.6782 15.2566 12.5346 15.4002C12.391 15.5438 12.2128 15.6156 12 15.6156ZM6.3077 19.5002C5.80257 19.5002 5.375 19.3252 5.025 18.9752C4.675 18.6252 4.5 18.1976 4.5 17.6925V15.7502C4.5 15.5374 4.5718 15.3592 4.7154 15.2156C4.85898 15.072 5.03718 15.0002 5.25 15.0002C5.46282 15.0002 5.64102 15.072 5.7846 15.2156C5.92818 15.3592 5.99997 15.5374 5.99997 15.7502V17.6925C5.99997 17.7694 6.03202 17.84 6.09612 17.9041C6.16024 17.9682 6.23077 18.0002 6.3077 18.0002H17.6922C17.7692 18.0002 17.8397 17.9682 17.9038 17.9041C17.9679 17.84 18 17.7694 18 17.6925V15.7502C18 15.5374 18.0718 15.3592 18.2154 15.2156C18.3589 15.072 18.5371 15.0002 18.75 15.0002C18.9628 15.0002 19.141 15.072 19.2845 15.2156C19.4281 15.3592 19.5 15.5374 19.5 15.7502V17.6925C19.5 18.1976 19.325 18.6252 18.975 18.9752C18.625 19.3252 18.1974 19.5002 17.6922 19.5002H6.3077Z" fill="#888888"/>
</g>
</svg>