<svg width="24" height="24" viewBox="0 0 24 24" fill="none" xmlns="http://www.w3.org/2000/svg">
<g id="wallet (6)" clip-path="url(#clip0_93_1949)">
<path id="Vector" d="M17.27 5.00901L15.147 1.37201C15.046 1.19901 14.88 1.07301 14.686 1.02301C14.493 0.975013 14.286 1.00301 14.114 1.10601L7.62402 5.00001L17.27 5.00901Z" fill="white"/>
<path id="Vector_2" d="M3 6C2.45 6 2 5.55 2 5C2 4.45 2.45 4 3 4H6.37L9.71 2H3C1.52 2 0.29 3.08 0.05 4.5C0.03 4.58 0 4.66 0 4.75V20C0 21.65 1.35 23 3 23H20C21.1 23 22 22.1 22 21V19H19.5C17.02 19 15 16.98 15 14.5C15 12.02 17.02 10 19.5 10H22V8C22 6.9 21.1 6 20 6H3ZM19 4C19 2.99 18.25 2.15 17.27 2.02L19 5V4Z" fill="white"/>
<path id="Vector_3" d="M23.25 11.5H19.5C17.846 11.5 16.5 12.846 16.5 14.5C16.5 16.154 17.846 17.5 19.5 17.5H23.25C23.664 17.5 24 17.164 24 16.75V12.25C24 11.836 23.664 11.5 23.25 11.5ZM19.5 15.5C18.948 15.5 18.5 15.052 18.5 14.5C18.5 13.948 18.948 13.5 19.5 13.5C20.052 13.5 20.5 13.948 20.5 14.5C20.5 15.052 20.052 15.5 19.5 15.5Z" fill="white"/>
</g>
<defs>
<clipPath id="clip0_93_1949">
<rect width="24" height="24" fill="white"/>
</clipPath>
</defs>
</svg>
